<svg width="148" height="32" viewBox="0 0 148 32" fill="none" xmlns="http://www.w3.org/2000/svg">
<rect width="148" height="32" rx="10" fill="#D48195"/>
<g filter="url(#filter0_d_43_60)">
<path d="M16.97 18.66C16.6367 19.08 16.2267 19.4767 15.74 19.85C15.26 20.2233 14.7133 20.53 14.1 20.77C13.4867 21.0033 12.8167 21.12 12.09 21.12C11.1633 21.12 10.3433 20.9567 9.63 20.63C8.91667 20.2967 8.31667 19.8267 7.83 19.22C7.34333 18.6133 6.97333 17.9 6.72 17.08C6.47333 16.2533 6.35 15.35 6.35 14.37C6.35 13.0967 6.57 11.96 7.01 10.96C7.45 9.96 8.09 9.17333 8.93 8.6C9.77 8.02667 10.7967 7.74 12.01 7.74C12.9967 7.74 13.91 7.95 14.75 8.37C15.5967 8.78333 16.26 9.40667 16.74 10.24C16.56 10.44 16.32 10.6633 16.02 10.91C15.7267 11.15 15.4267 11.3833 15.12 11.61C14.82 11.83 14.56 12.01 14.34 12.15C14.3133 12.0767 14.2467 11.9533 14.14 11.78C14.04 11.6067 13.9 11.4233 13.72 11.23C13.54 11.0367 13.3133 10.8733 13.04 10.74C12.7667 10.6 12.4467 10.53 12.08 10.53C11.7333 10.53 11.42 10.6167 11.14 10.79C10.86 10.9567 10.62 11.2 10.42 11.52C10.22 11.84 10.0667 12.22 9.96 12.66C9.85333 13.1 9.8 13.59 9.8 14.13C9.8 14.6433 9.84667 15.1267 9.94 15.58C10.0333 16.0333 10.17 16.4367 10.35 16.79C10.53 17.1367 10.76 17.4067 11.04 17.6C11.3267 17.7933 11.6567 17.89 12.03 17.89C12.3967 17.89 12.74 17.8233 13.06 17.69C13.38 17.55 13.68 17.3667 13.96 17.14C14.24 16.9133 14.4967 16.67 14.73 16.41C14.97 16.5767 15.2367 16.79 15.53 17.05C15.8233 17.31 16.1 17.5833 16.36 17.87C16.6267 18.1567 16.83 18.42 16.97 18.66ZM24.0072 21.51C22.6139 21.51 21.4739 21.21 20.5872 20.61C19.7072 20.01 19.0572 19.1933 18.6372 18.16C18.2239 17.1267 18.0172 15.9633 18.0172 14.67C18.0172 13.3367 18.2505 12.1533 18.7172 11.12C19.1905 10.0867 19.8705 9.27667 20.7572 8.69C21.6505 8.09667 22.7339 7.8 24.0072 7.8C25.0672 7.8 25.9772 7.97667 26.7372 8.33C27.4972 8.68333 28.1172 9.17333 28.5972 9.8C29.0839 10.4267 29.4405 11.1533 29.6672 11.98C29.8939 12.8067 30.0072 13.7 30.0072 14.66C30.0072 15.56 29.8905 16.42 29.6572 17.24C29.4305 18.06 29.0739 18.79 28.5872 19.43C28.1072 20.07 27.4872 20.5767 26.7272 20.95C25.9739 21.3233 25.0672 21.51 24.0072 21.51ZM24.0372 18.31C24.7172 18.31 25.2839 18.1233 25.7372 17.75C26.1972 17.3767 26.5405 16.89 26.7672 16.29C26.9939 15.6833 27.1072 15.0367 27.1072 14.35C27.1072 13.8433 27.0572 13.3567 26.9572 12.89C26.8572 12.4167 26.6972 11.9967 26.4772 11.63C26.2572 11.2633 25.9605 10.9733 25.5872 10.76C25.2139 10.5467 24.7539 10.44 24.2072 10.44C23.5872 10.44 23.0539 10.6267 22.6072 11C22.1605 11.3733 21.8139 11.8767 21.5672 12.51C21.3272 13.1367 21.2072 13.84 21.2072 14.62C21.2072 15.3133 21.2972 15.94 21.4772 16.5C21.6639 17.0533 21.9639 17.4933 22.3772 17.82C22.7972 18.1467 23.3505 18.31 24.0372 18.31ZM31.9523 21C31.9523 20.4867 31.9557 19.8433 31.9623 19.07C31.969 18.2967 31.979 17.4533 31.9923 16.54C32.0057 15.62 32.0223 14.68 32.0423 13.72C32.0623 12.76 32.0857 11.8333 32.1123 10.94C32.139 10.0467 32.1723 9.24333 32.2123 8.53C32.5323 8.49667 32.909 8.47 33.3423 8.45C33.7823 8.43 34.2123 8.41667 34.6323 8.41C35.059 8.39667 35.419 8.39 35.7123 8.39C36.0057 8.38333 36.169 8.38 36.2023 8.38C36.2157 8.40667 36.2623 8.56667 36.3423 8.86C36.429 9.15333 36.5357 9.53333 36.6623 10C36.7957 10.4667 36.939 10.98 37.0923 11.54C37.2457 12.1 37.399 12.67 37.5523 13.25C37.7123 13.83 37.8623 14.38 38.0023 14.9C38.1423 15.4133 38.2557 15.8567 38.3423 16.23C38.4357 16.6033 38.4957 16.86 38.5223 17L38.1523 17.05C38.219 16.8633 38.319 16.5567 38.4523 16.13C38.5857 15.7033 38.7357 15.21 38.9023 14.65C39.0757 14.0833 39.249 13.49 39.4223 12.87C39.6023 12.2433 39.7757 11.6367 39.9423 11.05C40.109 10.4633 40.2523 9.94 40.3723 9.48C40.499 9.01333 40.589 8.66 40.6423 8.42C40.9223 8.42 41.279 8.42667 41.7123 8.44C42.1523 8.45333 42.5957 8.47333 43.0423 8.5C43.489 8.52667 43.859 8.56667 44.1523 8.62C44.2857 9.22 44.379 9.99667 44.4323 10.95C44.4857 11.8967 44.5123 12.9 44.5123 13.96C44.5123 14.8133 44.499 15.68 44.4723 16.56C44.4523 17.4333 44.4223 18.2533 44.3823 19.02C44.3423 19.7867 44.299 20.4333 44.2523 20.96C43.9257 20.96 43.5723 20.9533 43.1923 20.94C42.8123 20.9267 42.449 20.91 42.1023 20.89C41.7623 20.8633 41.4923 20.8433 41.2923 20.83C41.3257 20.3967 41.3557 19.84 41.3823 19.16C41.4157 18.48 41.4423 17.7767 41.4623 17.05C41.4823 16.6033 41.4957 16.1533 41.5023 15.7C41.5157 15.2467 41.5257 14.8333 41.5323 14.46C41.5457 14.0867 41.5557 13.7967 41.5623 13.59C41.489 13.85 41.3857 14.19 41.2523 14.61C41.1257 15.0233 40.979 15.48 40.8123 15.98C40.6523 16.48 40.4823 16.9867 40.3023 17.5C40.129 18.0067 39.959 18.49 39.7923 18.95C39.6323 19.41 39.489 19.8067 39.3623 20.14C39.2423 20.4733 39.149 20.7067 39.0823 20.84C38.989 20.8467 38.8457 20.8533 38.6523 20.86C38.4657 20.86 38.3223 20.86 38.2223 20.86C38.0423 20.86 37.8557 20.8533 37.6623 20.84C37.4757 20.82 37.269 20.7967 37.0423 20.77C37.0223 20.6833 36.979 20.5033 36.9123 20.23C36.8523 19.9567 36.7723 19.62 36.6723 19.22C36.5723 18.82 36.4623 18.3833 36.3423 17.91C36.229 17.43 36.1123 16.9433 35.9923 16.45C35.8723 15.95 35.7523 15.4667 35.6323 15C35.5123 14.5333 35.4023 14.11 35.3023 13.73C35.209 13.35 35.129 13.0433 35.0623 12.81C35.069 13.4433 35.0723 14.1167 35.0723 14.83C35.079 15.5433 35.0823 16.2433 35.0823 16.93C35.0823 17.6167 35.0823 18.25 35.0823 18.83C35.089 19.4033 35.0923 19.88 35.0923 20.26C35.0923 20.64 35.0923 20.87 35.0923 20.95C34.859 20.9567 34.5623 20.9667 34.2023 20.98C33.8423 20.9867 33.4657 20.9933 33.0723 21C32.679 21 32.3057 21 31.9523 21ZM49.8708 21.18C49.6108 21.18 49.3008 21.1767 48.9408 21.17C48.5874 21.1633 48.2274 21.15 47.8608 21.13C47.5008 21.11 47.1741 21.0833 46.8808 21.05C46.8674 20.6167 46.8541 20.0633 46.8408 19.39C46.8274 18.71 46.8141 17.9867 46.8008 17.22C46.7941 16.4533 46.7908 15.7233 46.7908 15.03C46.7908 13.9633 46.7974 12.8233 46.8108 11.61C46.8308 10.3967 46.8541 9.14 46.8808 7.84C46.9941 7.83333 47.1741 7.83 47.4208 7.83C47.6674 7.82333 47.9441 7.81667 48.2508 7.81C48.5641 7.79667 48.8641 7.79 49.1508 7.79C49.4441 7.78333 49.6908 7.78 49.8908 7.78C49.9308 8.49333 49.9641 9.28667 49.9908 10.16C50.0174 11.0267 50.0374 11.9133 50.0508 12.82C50.0641 13.7267 50.0708 14.5967 50.0708 15.43C50.0708 15.8433 50.0674 16.2733 50.0608 16.72C50.0608 17.1667 50.0574 17.61 50.0508 18.05C50.0441 18.49 50.0308 18.91 50.0108 19.31C49.9908 19.71 49.9708 20.0733 49.9508 20.4C49.9308 20.72 49.9041 20.98 49.8708 21.18ZM55.932 21.06C55.5254 21.0667 55.0954 21.0567 54.642 21.03C54.1954 21.01 53.782 20.9833 53.402 20.95C53.022 20.9167 52.7287 20.8867 52.522 20.86C52.522 20.7933 52.522 20.61 52.522 20.31C52.522 20.01 52.522 19.6267 52.522 19.16C52.522 18.6933 52.522 18.1767 52.522 17.61C52.522 17.0367 52.522 16.4433 52.522 15.83C52.5287 15.2167 52.532 14.6167 52.532 14.03C52.532 13.3033 52.5287 12.5833 52.522 11.87C52.5154 11.15 52.5054 10.4833 52.492 9.87C52.4787 9.25 52.4587 8.73667 52.432 8.33C52.5654 8.33 52.7687 8.33667 53.042 8.35C53.3154 8.36333 53.6154 8.38 53.942 8.4C54.2754 8.42 54.5987 8.44667 54.912 8.48C55.2254 8.50667 55.492 8.53667 55.712 8.57C56.1454 9.19667 56.562 9.83667 56.962 10.49C57.3687 11.1367 57.752 11.79 58.112 12.45C58.4787 13.1033 58.822 13.7567 59.142 14.41C59.4687 15.0633 59.772 15.7067 60.052 16.34L59.642 8.51C59.842 8.51 60.0854 8.52 60.372 8.54C60.6654 8.56 60.9654 8.58333 61.272 8.61C61.5854 8.63667 61.872 8.67 62.132 8.71C62.3987 8.75 62.5987 8.79 62.732 8.83C62.752 9.11667 62.772 9.44667 62.792 9.82C62.8187 10.1867 62.8387 10.5833 62.852 11.01C62.8654 11.43 62.8787 11.8667 62.892 12.32C62.9054 12.7667 62.9154 13.2167 62.922 13.67C62.9287 14.1167 62.932 14.5467 62.932 14.96C62.932 15.6333 62.922 16.3 62.902 16.96C62.8887 17.6133 62.8654 18.2233 62.832 18.79C62.8054 19.35 62.7754 19.8233 62.742 20.21C62.7087 20.59 62.672 20.8433 62.632 20.97C62.4454 20.9767 62.2454 20.9833 62.032 20.99C61.8254 20.99 61.6154 20.99 61.402 20.99C61.0887 20.99 60.782 20.9833 60.482 20.97C60.1887 20.9567 59.942 20.9333 59.742 20.9C59.6754 20.78 59.562 20.5767 59.402 20.29C59.2487 19.9967 59.0587 19.6433 58.832 19.23C58.6054 18.81 58.3587 18.3533 58.092 17.86C57.8254 17.3667 57.552 16.8633 57.272 16.35C56.992 15.83 56.7154 15.3233 56.442 14.83C56.1687 14.3367 55.9187 13.8833 55.692 13.47C55.712 13.6567 55.732 13.94 55.752 14.32C55.772 14.7 55.7887 15.14 55.802 15.64C55.822 16.14 55.8387 16.66 55.852 17.2C55.8654 17.7333 55.8787 18.2567 55.892 18.77C55.9054 19.2767 55.9154 19.7333 55.922 20.14C55.9287 20.54 55.932 20.8467 55.932 21.06ZM71.0145 21.48C69.7079 21.48 68.5912 21.2033 67.6645 20.65C66.7445 20.0967 66.0412 19.3033 65.5545 18.27C65.0679 17.23 64.8245 15.9867 64.8245 14.54C64.8245 13.1867 65.0445 11.99 65.4845 10.95C65.9312 9.91 66.5812 9.09667 67.4345 8.51C68.2879 7.91667 69.3279 7.62 70.5545 7.62C71.2212 7.62 71.8612 7.71333 72.4745 7.9C73.0945 8.08 73.6545 8.33667 74.1545 8.67C74.6545 9.00333 75.0579 9.4 75.3645 9.86C75.2512 10.0067 75.0512 10.21 74.7645 10.47C74.4845 10.73 74.1745 10.9967 73.8345 11.27C73.4945 11.5433 73.1712 11.7733 72.8645 11.96C72.7112 11.7333 72.5279 11.5233 72.3145 11.33C72.1079 11.1367 71.8612 10.9833 71.5745 10.87C71.2879 10.7567 70.9512 10.7 70.5645 10.7C70.1912 10.7 69.8479 10.8033 69.5345 11.01C69.2212 11.21 68.9512 11.49 68.7245 11.85C68.4979 12.21 68.3212 12.6367 68.1945 13.13C68.0745 13.6167 68.0145 14.1467 68.0145 14.72C68.0145 15.4867 68.1245 16.17 68.3445 16.77C68.5645 17.3633 68.8979 17.83 69.3445 18.17C69.7912 18.5033 70.3579 18.67 71.0445 18.67C71.4712 18.67 71.8312 18.5867 72.1245 18.42C72.4245 18.2467 72.6512 18.02 72.8045 17.74C72.9645 17.4533 73.0445 17.1467 73.0445 16.82C73.0445 16.7267 73.0412 16.6433 73.0345 16.57C73.0345 16.4967 73.0279 16.4267 73.0145 16.36C72.9012 16.3267 72.7245 16.2933 72.4845 16.26C72.2445 16.22 71.9779 16.1833 71.6845 16.15C71.3979 16.11 71.1212 16.08 70.8545 16.06C70.5879 16.0333 70.3679 16.0167 70.1945 16.01C70.1945 15.8233 70.1979 15.5867 70.2045 15.3C70.2112 15.0067 70.2212 14.7167 70.2345 14.43C70.2545 14.1367 70.2745 13.9 70.2945 13.72C70.7679 13.7267 71.3445 13.7667 72.0245 13.84C72.7045 13.9067 73.3879 13.9933 74.0745 14.1C74.7679 14.2067 75.3612 14.3233 75.8545 14.45C75.9212 14.6967 75.9679 14.9767 75.9945 15.29C76.0212 15.5967 76.0345 15.8767 76.0345 16.13C76.0345 17.0967 75.8512 17.9867 75.4845 18.8C75.1245 19.6067 74.5712 20.2567 73.8245 20.75C73.0845 21.2367 72.1479 21.48 71.0145 21.48ZM88.6508 21.16C88.1508 21.16 87.6408 21.1 87.1208 20.98C86.6074 20.86 86.1074 20.6833 85.6208 20.45C85.1408 20.2167 84.7008 19.93 84.3008 19.59C83.9008 19.2433 83.5641 18.8467 83.2908 18.4C83.3308 18.3333 83.4374 18.22 83.6108 18.06C83.7841 17.8933 83.9841 17.7133 84.2108 17.52C84.4374 17.32 84.6608 17.1367 84.8808 16.97C85.1074 16.8033 85.2941 16.6833 85.4408 16.61C85.6541 16.8567 85.8808 17.1033 86.1208 17.35C86.3674 17.5967 86.6274 17.82 86.9008 18.02C87.1808 18.2133 87.4808 18.37 87.8008 18.49C88.1208 18.61 88.4608 18.67 88.8208 18.67C89.2341 18.67 89.5608 18.5933 89.8008 18.44C90.0474 18.2867 90.2241 18.0933 90.3308 17.86C90.4374 17.62 90.4908 17.3767 90.4908 17.13C90.4908 16.93 90.4408 16.74 90.3408 16.56C90.2408 16.38 90.0908 16.21 89.8908 16.05C89.6908 15.8833 89.4408 15.7233 89.1408 15.57C88.8474 15.41 88.5008 15.26 88.1008 15.12C87.3008 14.8133 86.5774 14.49 85.9308 14.15C85.2841 13.8033 84.7674 13.3867 84.3808 12.9C84.0008 12.4133 83.8108 11.8033 83.8108 11.07C83.8108 10.29 84.0274 9.63667 84.4608 9.11C84.8941 8.58333 85.4674 8.18667 86.1808 7.92C86.8941 7.64667 87.6608 7.51 88.4808 7.51C89.1008 7.51 89.7008 7.58 90.2808 7.72C90.8674 7.85333 91.4141 8.05667 91.9208 8.33C92.4274 8.60333 92.8641 8.94667 93.2308 9.36C93.1308 9.50667 92.9741 9.70333 92.7608 9.95C92.5474 10.1967 92.3208 10.4433 92.0808 10.69C91.8408 10.9367 91.6374 11.1333 91.4708 11.28C91.2041 11.02 90.9074 10.7867 90.5808 10.58C90.2541 10.3667 89.9108 10.2 89.5508 10.08C89.1908 9.95333 88.8274 9.89 88.4608 9.89C88.0341 9.89 87.6741 9.98333 87.3808 10.17C87.0874 10.35 86.9408 10.6233 86.9408 10.99C86.9408 11.1567 86.9774 11.3067 87.0508 11.44C87.1308 11.5733 87.2408 11.6933 87.3808 11.8C87.5208 11.9067 87.6874 12.0067 87.8808 12.1C88.0741 12.1867 88.2908 12.27 88.5308 12.35C89.2108 12.5767 89.8574 12.8133 90.4708 13.06C91.0908 13.3067 91.6374 13.5933 92.1108 13.92C92.5908 14.24 92.9674 14.6333 93.2408 15.1C93.5141 15.5667 93.6508 16.1367 93.6508 16.81C93.6508 17.4433 93.5274 18.0267 93.2808 18.56C93.0341 19.0867 92.6874 19.5467 92.2408 19.94C91.8008 20.3267 91.2741 20.6267 90.6608 20.84C90.0541 21.0533 89.3841 21.16 88.6508 21.16ZM100.96 21.51C99.567 21.51 98.427 21.21 97.5403 20.61C96.6603 20.01 96.0103 19.1933 95.5903 18.16C95.177 17.1267 94.9703 15.9633 94.9703 14.67C94.9703 13.3367 95.2036 12.1533 95.6703 11.12C96.1436 10.0867 96.8236 9.27667 97.7103 8.69C98.6036 8.09667 99.687 7.8 100.96 7.8C102.02 7.8 102.93 7.97667 103.69 8.33C104.45 8.68333 105.07 9.17333 105.55 9.8C106.037 10.4267 106.394 11.1533 106.62 11.98C106.847 12.8067 106.96 13.7 106.96 14.66C106.96 15.56 106.844 16.42 106.61 17.24C106.384 18.06 106.027 18.79 105.54 19.43C105.06 20.07 104.44 20.5767 103.68 20.95C102.927 21.3233 102.02 21.51 100.96 21.51ZM100.99 18.31C101.67 18.31 102.237 18.1233 102.69 17.75C103.15 17.3767 103.494 16.89 103.72 16.29C103.947 15.6833 104.06 15.0367 104.06 14.35C104.06 13.8433 104.01 13.3567 103.91 12.89C103.81 12.4167 103.65 11.9967 103.43 11.63C103.21 11.2633 102.914 10.9733 102.54 10.76C102.167 10.5467 101.707 10.44 101.16 10.44C100.54 10.44 100.007 10.6267 99.5603 11C99.1136 11.3733 98.767 11.8767 98.5203 12.51C98.2803 13.1367 98.1603 13.84 98.1603 14.62C98.1603 15.3133 98.2503 15.94 98.4303 16.5C98.617 17.0533 98.917 17.4933 99.3303 17.82C99.7503 18.1467 100.304 18.31 100.99 18.31ZM114.495 21.51C113.102 21.51 111.962 21.21 111.075 20.61C110.195 20.01 109.545 19.1933 109.125 18.16C108.712 17.1267 108.505 15.9633 108.505 14.67C108.505 13.3367 108.739 12.1533 109.205 11.12C109.679 10.0867 110.359 9.27667 111.245 8.69C112.139 8.09667 113.222 7.8 114.495 7.8C115.555 7.8 116.465 7.97667 117.225 8.33C117.985 8.68333 118.605 9.17333 119.085 9.8C119.572 10.4267 119.929 11.1533 120.155 11.98C120.382 12.8067 120.495 13.7 120.495 14.66C120.495 15.56 120.379 16.42 120.145 17.24C119.919 18.06 119.562 18.79 119.075 19.43C118.595 20.07 117.975 20.5767 117.215 20.95C116.462 21.3233 115.555 21.51 114.495 21.51ZM114.525 18.31C115.205 18.31 115.772 18.1233 116.225 17.75C116.685 17.3767 117.029 16.89 117.255 16.29C117.482 15.6833 117.595 15.0367 117.595 14.35C117.595 13.8433 117.545 13.3567 117.445 12.89C117.345 12.4167 117.185 11.9967 116.965 11.63C116.745 11.2633 116.449 10.9733 116.075 10.76C115.702 10.5467 115.242 10.44 114.695 10.44C114.075 10.44 113.542 10.6267 113.095 11C112.649 11.3733 112.302 11.8767 112.055 12.51C111.815 13.1367 111.695 13.84 111.695 14.62C111.695 15.3133 111.785 15.94 111.965 16.5C112.152 17.0533 112.452 17.4933 112.865 17.82C113.285 18.1467 113.839 18.31 114.525 18.31ZM125.991 21.06C125.584 21.0667 125.154 21.0567 124.701 21.03C124.254 21.01 123.841 20.9833 123.461 20.95C123.081 20.9167 122.787 20.8867 122.581 20.86C122.581 20.7933 122.581 20.61 122.581 20.31C122.581 20.01 122.581 19.6267 122.581 19.16C122.581 18.6933 122.581 18.1767 122.581 17.61C122.581 17.0367 122.581 16.4433 122.581 15.83C122.587 15.2167 122.591 14.6167 122.591 14.03C122.591 13.3033 122.587 12.5833 122.581 11.87C122.574 11.15 122.564 10.4833 122.551 9.87C122.537 9.25 122.517 8.73667 122.491 8.33C122.624 8.33 122.827 8.33667 123.101 8.35C123.374 8.36333 123.674 8.38 124.001 8.4C124.334 8.42 124.657 8.44667 124.971 8.48C125.284 8.50667 125.551 8.53667 125.771 8.57C126.204 9.19667 126.621 9.83667 127.021 10.49C127.427 11.1367 127.811 11.79 128.171 12.45C128.537 13.1033 128.881 13.7567 129.201 14.41C129.527 15.0633 129.831 15.7067 130.111 16.34L129.701 8.51C129.901 8.51 130.144 8.52 130.431 8.54C130.724 8.56 131.024 8.58333 131.331 8.61C131.644 8.63667 131.931 8.67 132.191 8.71C132.457 8.75 132.657 8.79 132.791 8.83C132.811 9.11667 132.831 9.44667 132.851 9.82C132.877 10.1867 132.897 10.5833 132.911 11.01C132.924 11.43 132.937 11.8667 132.951 12.32C132.964 12.7667 132.974 13.2167 132.981 13.67C132.987 14.1167 132.991 14.5467 132.991 14.96C132.991 15.6333 132.981 16.3 132.961 16.96C132.947 17.6133 132.924 18.2233 132.891 18.79C132.864 19.35 132.834 19.8233 132.801 20.21C132.767 20.59 132.731 20.8433 132.691 20.97C132.504 20.9767 132.304 20.9833 132.091 20.99C131.884 20.99 131.674 20.99 131.461 20.99C131.147 20.99 130.841 20.9833 130.541 20.97C130.247 20.9567 130.001 20.9333 129.801 20.9C129.734 20.78 129.621 20.5767 129.461 20.29C129.307 19.9967 129.117 19.6433 128.891 19.23C128.664 18.81 128.417 18.3533 128.151 17.86C127.884 17.3667 127.611 16.8633 127.331 16.35C127.051 15.83 126.774 15.3233 126.501 14.83C126.227 14.3367 125.977 13.8833 125.751 13.47C125.771 13.6567 125.791 13.94 125.811 14.32C125.831 14.7 125.847 15.14 125.861 15.64C125.881 16.14 125.897 16.66 125.911 17.2C125.924 17.7333 125.937 18.2567 125.951 18.77C125.964 19.2767 125.974 19.7333 125.981 20.14C125.987 20.54 125.991 20.8467 125.991 21.06ZM138.663 16.63C138.47 16.63 138.2 16.6267 137.853 16.62C137.506 16.6067 137.156 16.59 136.803 16.57C136.456 16.5433 136.173 16.5167 135.953 16.49C135.913 15.8633 135.876 15.2033 135.843 14.51C135.81 13.81 135.78 13.1033 135.753 12.39C135.733 11.67 135.716 10.9533 135.703 10.24C135.69 9.52667 135.68 8.83667 135.673 8.17C135.673 7.49667 135.68 6.86333 135.693 6.27L139.383 6.43C139.35 6.69667 139.306 7.14 139.253 7.76C139.2 8.37333 139.14 9.08 139.073 9.88C139.013 10.68 138.953 11.5033 138.893 12.35C138.84 13.1967 138.79 13.9967 138.743 14.75C138.703 15.4967 138.676 16.1233 138.663 16.63ZM137.433 21.26C136.82 21.26 136.306 21.0733 135.893 20.7C135.486 20.3267 135.283 19.85 135.283 19.27C135.283 18.6967 135.49 18.2467 135.903 17.92C136.323 17.5867 136.82 17.42 137.393 17.42C137.973 17.42 138.466 17.5933 138.873 17.94C139.286 18.2867 139.493 18.7233 139.493 19.25C139.493 19.8633 139.293 20.3533 138.893 20.72C138.5 21.08 138.013 21.26 137.433 21.26Z" fill="white"/>
</g>
<defs>
<filter id="filter0_d_43_60" x="2.3501" y="6.27002" width="141.143" height="23.24" filterUnits="userSpaceOnUse" color-interpolation-filters="sRGB">
<feFlood flood-opacity="0" result="BackgroundImageFix"/>
<feColorMatrix in="SourceAlpha" type="matrix" values="0 0 0 0 0 0 0 0 0 0 0 0 0 0 0 0 0 0 127 0" result="hardAlpha"/>
<feOffset dy="4"/>
<feGaussianBlur stdDeviation="2"/>
<feComposite in2="hardAlpha" operator="out"/>
<feColorMatrix type="matrix" values="0 0 0 0 0.333333 0 0 0 0 0 0 0 0 0 0 0 0 0 0.5 0"/>
<feBlend mode="normal" in2="BackgroundImageFix" result="effect1_dropShadow_43_60"/>
<feBlend mode="normal" in="SourceGraphic" in2="effect1_dropShadow_43_60" result="shape"/>
</filter>
</defs>
</svg>
