<svg width="72" height="72" viewBox="0 0 72 72" fill="none" xmlns="http://www.w3.org/2000/svg">
<path d="M33.5421 8.86675L30.9244 7.4013L33.5421 8.86675ZM34.1539 7.41116L37.019 8.30051L34.1539 7.41116ZM34.6593 5.78283L31.7942 4.89349L34.6593 5.78283ZM38.7749 3.87215L39.2492 0.909876L38.7749 3.87215ZM40.3534 4.12487L39.8791 7.08714L40.3534 4.12487ZM41.7758 4.58691L43.1809 1.93629L41.7758 4.58691ZM42.4091 4.92259L43.8141 2.27197L42.4091 4.92259ZM43.0423 5.25827L41.6372 7.90889L43.0423 5.25827ZM44.4863 5.67589L44.1847 8.66068L44.4863 5.67589ZM47.8352 8.07612L50.5958 6.90172L47.8352 8.07612ZM48.4671 9.47696L51.1737 8.18306L48.4671 9.47696ZM48.7935 10.1597L46.0868 11.4536L48.7935 10.1597ZM49.1198 10.8424L46.4132 12.1363L49.1198 10.8424ZM49.1624 12.2421L46.3729 11.1383L49.1624 12.2421ZM48.5949 13.6762L45.8054 12.5724L48.5949 13.6762ZM48.4489 15.1865L51.4047 14.6735L48.4489 15.1865ZM48.7242 16.773L51.68 16.2599L48.7242 16.773ZM49.2391 17.0583L51.6474 18.8472L49.2391 17.0583ZM49.9937 16.0426L52.4019 17.8315L49.9937 16.0426ZM51.125 15.3324L50.3478 12.4349L51.125 15.3324ZM52.6331 14.9279L53.4103 17.8255L52.6331 14.9279ZM54.1248 14.5533L54.8075 17.4746L54.1248 14.5533ZM55.5999 14.2085L54.9172 11.2872L55.5999 14.2085ZM57.0768 14.2233L57.8131 11.3151L57.0768 14.2233ZM57.816 14.4105L58.5523 11.5022L57.816 14.4105ZM58.5552 14.5976L57.8189 17.5059L58.5552 14.5976ZM60.077 15.037L59.1568 17.8924L60.077 15.037ZM60.8596 15.2892L61.7798 12.4338L60.8596 15.2892ZM61.6421 15.5414L60.7219 18.3968L61.6421 15.5414ZM62.48 16.6853L65.4743 16.4995L62.48 16.6853ZM62.5353 17.5769L59.5411 17.7627L62.5353 17.5769ZM63.1695 19.9486L60.9284 21.9429L63.1695 19.9486ZM64.2166 21.1253L66.4577 19.131L64.2166 21.1253ZM64.4885 22.4368L67.322 23.4224L64.4885 22.4368ZM64.237 23.16L61.4035 22.1745L64.237 23.16ZM63.9854 23.8832L66.8189 24.8688L63.9854 23.8832ZM63.7084 25.4193L60.7099 25.3254L63.7084 25.4193ZM63.6575 27.045L66.656 27.1389L63.6575 27.045ZM62.9466 28.2684L61.405 25.6948L62.9466 28.2684ZM62.2612 28.679L60.7196 26.1054L62.2612 28.679ZM61.5758 29.0896L63.1174 31.6632L61.5758 29.0896ZM60.383 30.0901L62.6574 32.0463L60.383 30.0901ZM59.3682 31.27L57.0937 29.3137L59.3682 31.27ZM59.0642 32.097L56.7866 34.0496L59.0642 32.097ZM59.4708 32.5714L61.7484 30.6188L59.4708 32.5714ZM60.329 33.0901L61.5138 30.3339L60.329 33.0901ZM61.6388 33.6531L60.454 36.4093L61.6388 33.6531ZM62.8497 34.2723L64.4069 31.7081L62.8497 34.2723ZM63.4056 34.6099L61.8484 37.1741L63.4056 34.6099ZM63.9616 34.9476L65.5188 32.3834L63.9616 34.9476ZM64.9231 35.7994L67.2785 33.9413L64.9231 35.7994ZM65.7343 36.8277L63.379 38.6857L65.7343 36.8277ZM66.6619 37.9272L68.9009 35.9304L66.6619 37.9272ZM67.706 39.0978L65.467 41.0946L67.706 39.0978ZM68.2941 40.4794L71.2838 40.2313L68.2941 40.4794ZM68.4262 42.072L71.4159 41.8239L68.4262 42.072ZM68.0363 43.5236L70.499 45.2369L68.0363 43.5236ZM67.5803 44.179L70.043 45.8923L67.5803 44.179ZM67.1244 44.8344L64.6617 43.1211L67.1244 44.8344ZM66.1059 45.9777L68.0715 48.244L66.1059 45.9777ZM64.9809 46.9534L63.0153 44.687L64.9809 46.9534ZM63.2088 48.4282L61.3122 46.1038L63.2088 48.4282ZM61.2148 49.4482L61.3407 52.4455L61.2148 49.4482ZM59.6459 49.514L59.52 46.5167L59.6459 49.514ZM58.1072 49.4444L58.5115 46.4718L58.1072 49.4444ZM56.5985 49.2392L56.1943 52.2119L56.5985 49.2392ZM55.465 49.3682L57.0287 51.9285L55.465 49.3682ZM54.7067 49.8314L53.143 47.2712L54.7067 49.8314ZM55.0134 50.5183L56.6725 48.0188L55.0134 50.5183ZM55.6993 50.9735L54.0402 53.473L55.6993 50.9735ZM56.3852 51.4288L58.0443 48.9293L56.3852 51.4288ZM57.506 52.5986L60.0686 51.0388L57.506 52.5986ZM58.3758 54.0277L60.9385 52.4679L58.3758 54.0277ZM58.6146 55.5535L61.5306 56.2586L58.6146 55.5535ZM58.4184 56.3648L55.5025 55.6597L58.4184 56.3648ZM58.2223 57.176L55.3063 56.4709L58.2223 57.176ZM57.4912 58.5684L59.6985 60.6001L57.4912 58.5684ZM56.4214 59.7305L58.6287 61.7623L56.4214 59.7305ZM55.3652 60.7572L53.4161 58.4767L55.3652 60.7572ZM54.3224 61.6484L56.2716 63.929L54.3224 61.6484ZM53.3099 62.7564L50.9001 60.9695L53.3099 62.7564ZM52.3275 64.0813L54.7372 65.8682L52.3275 64.0813ZM51.0497 64.6741L51.3141 61.6858L51.0497 64.6741ZM50.2632 64.6045L49.9988 67.5928L50.2632 64.6045ZM49.4767 64.5349L49.2122 67.5232L49.4767 64.5349ZM47.9735 64.2671L47.1737 67.1585L47.9735 64.2671ZM47.2569 64.0689L48.0566 61.1775L47.2569 64.0689ZM46.5402 63.8707L45.7405 66.7621L46.5402 63.8707ZM45.1656 63.3031L46.634 60.6871L45.1656 63.3031ZM44.5077 62.9338L43.0392 65.5499L44.5077 62.9338ZM43.8497 62.5645L45.3181 59.9484L43.8497 62.5645ZM42.5708 61.6984L40.6967 64.041L42.5708 61.6984ZM41.9499 61.2017L43.8241 58.8591L41.9499 61.2017ZM41.3291 60.705L43.2032 58.3624L41.3291 60.705ZM40.4332 59.7284L43.0359 58.2365L40.4332 59.7284ZM39.8831 58.7689L37.2804 60.2608L39.8831 58.7689ZM39.8695 59.1117L37.0104 60.0203L39.8695 59.1117ZM40.1309 59.9344L37.2718 60.843L40.1309 59.9344ZM40.3924 60.757L37.5333 61.6656L40.3924 60.757ZM39.2988 62.6974L37.3898 60.3832L39.2988 62.6974ZM38.6213 63.2563L40.5302 65.5706L38.6213 63.2563ZM37.6002 64.5052L34.9146 63.1682L37.6002 64.5052ZM36.9132 65.8853L34.2275 64.5483L36.9132 65.8853ZM35.8043 66.693L35.3484 63.7279L35.8043 66.693ZM34.2737 66.9284L34.7296 69.8935L34.2737 66.9284ZM32.8089 67.3364L31.6587 64.5657L32.8089 67.3364ZM31.4099 67.9172L32.56 70.688L31.4099 67.9172ZM29.8722 68.2413L29.7517 65.2437L29.8722 68.2413ZM28.1959 68.3086L28.3163 71.3062L28.1959 68.3086ZM26.9407 67.5726L24.3029 69.0015L26.9407 67.5726ZM26.1067 66.0331L28.7445 64.6041L26.1067 66.0331ZM25.0596 64.7991L23.2802 67.2144L25.0596 64.7991ZM23.1568 62.6285L26.1565 62.5811L23.1568 62.6285ZM23.1322 61.0726L20.1326 61.12L23.1322 61.0726ZM23.0441 59.5471L20.0594 59.8498L23.0441 59.5471ZM22.9683 58.7996L19.9836 59.1022L22.9683 58.7996ZM22.8925 58.052L25.8772 57.7494L22.8925 58.052ZM23.2207 56.621L25.8033 58.1474L23.2207 56.621ZM24.0286 55.2541L21.4459 53.7277L24.0286 55.2541ZM23.7483 55.126L21.8577 52.7967L23.7483 55.126ZM22.3798 56.2367L24.2705 58.566L22.3798 56.2367ZM20.9298 57.0329L21.8296 59.8948L20.9298 57.0329ZM19.3981 57.5145L18.4983 54.6526L19.3981 57.5145ZM17.8605 57.7562L17.864 60.7562L17.8605 57.7562ZM16.3169 57.758L16.3204 60.758L16.3169 57.758ZM14.7384 57.7684L14.7032 54.7686L14.7384 57.7684ZM13.1248 57.7873L13.1599 60.7871L13.1248 57.7873ZM11.922 57.0451L9.2679 58.4436L11.922 57.0451ZM11.1298 55.5417L13.7838 54.1432L11.1298 55.5417ZM10.0417 54.3926L11.5359 51.7912L10.0417 54.3926ZM9.34969 53.9952L7.85554 56.5966L9.34969 53.9952ZM8.65769 53.5977L10.1518 50.9963L8.65769 53.5977ZM7.80893 52.4372L10.7476 51.8335L7.80893 52.4372ZM7.49542 50.9112L4.5568 51.5149L7.49542 50.9112ZM7.12051 47.756L4.13291 48.0285L7.12051 47.756ZM7.39399 46.2243L10.1075 47.5036L7.39399 46.2243ZM8.0864 44.7557L5.37287 43.4763L8.0864 44.7557ZM9.00871 43.4535L11.1146 45.5902L9.00871 43.4535ZM10.1609 42.3179L8.05505 40.1813L10.1609 42.3179ZM11.9712 40.8813L10.2443 38.4281L11.9712 40.8813ZM12.5883 40.4469L14.3152 42.9L12.5883 40.4469ZM12.9184 39.9822L13.2322 36.9987L12.9184 39.9822ZM12.6314 39.9521L12.3176 42.9356L12.6314 39.9521ZM12.3443 39.9219L12.0305 42.9054L12.3443 39.9219ZM8.48042 38.9722L5.93626 40.5619L8.48042 38.9722ZM7.61041 37.5799L5.06625 39.1696L7.61041 37.5799ZM4.00209 33.7293L1.11776 34.5543L4.00209 33.7293ZM3.78479 32.9696L6.66912 32.1446V32.1446L3.78479 32.9696ZM4.02052 31.5221L1.51527 29.8717L4.02052 31.5221ZM4.47356 30.8344L6.97881 32.4848L4.47356 30.8344ZM4.9266 30.1467L7.43185 31.7971L4.9266 30.1467ZM5.60719 27.313L2.62391 26.9966L5.60719 27.313ZM6.18012 26.0667L3.99011 24.0164L6.18012 26.0667ZM7.17427 25.0048L9.36427 27.0551L7.17427 25.0048ZM8.26441 23.9139L6.20479 21.7326L8.26441 23.9139ZM9.45054 22.7939L7.39092 20.6126L9.45054 22.7939ZM10.8543 22.2423L10.8233 25.2421L10.8543 22.2423ZM11.6651 22.2507L11.6961 19.2509L11.6651 22.2507ZM12.4758 22.2591L12.4448 25.2589L12.4758 22.2591ZM14.0387 22.4023L13.5095 25.3552L14.0387 22.4023ZM15.543 22.6719L16.0722 19.7189L15.543 22.6719ZM16.1992 22.8427L17.2548 25.6509L16.1992 22.8427ZM16.0073 22.9149L14.9517 20.1067L16.0073 22.9149ZM15.1674 20.7159L12.3209 21.6633L15.1674 20.7159ZM14.9348 19.2038L11.9354 19.1436L14.9348 19.2038ZM14.9656 17.6695L17.965 17.7297L14.9656 17.6695ZM14.6765 14.7392L11.7058 15.1573L14.6765 14.7392ZM14.7433 13.2545L11.8137 12.6085L14.7433 13.2545ZM15.0801 11.7272L18.0097 12.3732L15.0801 11.7272ZM15.9212 10.5599L14.3775 7.98752L15.9212 10.5599ZM16.594 10.1561L18.1377 12.7285L16.594 10.1561ZM18.5758 8.98461L17.0859 6.38072L18.5758 8.98461ZM19.8484 8.25645L18.3585 5.65256L19.8484 8.25645ZM21.9129 8.2997L21.0902 11.1847L21.9129 8.2997ZM22.6271 8.50337L23.4498 5.6184V5.6184L22.6271 8.50337ZM24.2122 8.33972L25.3779 11.104L24.2122 8.33972ZM25.0832 7.9724L23.9175 5.20814L25.0832 7.9724ZM25.9543 7.60509L27.12 10.3693L25.9543 7.60509ZM27.3917 7.85602L25.1797 9.88257L27.3917 7.85602ZM27.9581 8.47428L25.7461 10.5008L27.9581 8.47428ZM28.5245 9.09253L30.7365 7.06598L28.5245 9.09253ZM29.5382 10.3378L27.096 12.0801L29.5382 10.3378ZM29.9855 10.9648L32.4278 9.22252L29.9855 10.9648ZM30.4328 11.5918L27.9906 13.3341L30.4328 11.5918ZM31.2104 12.549L33.3314 10.4273L31.2104 12.549ZM31.871 13.2093L29.75 15.331L31.871 13.2093ZM32.515 12.9027L29.8239 11.5769L32.515 12.9027ZM33.1425 11.629L35.8336 12.9548L33.1425 11.629ZM33.2084 10.9419L33.805 8.00181L33.2084 10.9419ZM32.7127 10.8413L33.3093 7.90123L32.7127 10.8413ZM32.8239 10.1496L35.4416 11.615L32.8239 10.1496ZM31.2214 40.2993L33.9821 39.1252L31.2214 40.2993ZM31.9696 41.2796L29.9294 43.479L31.9696 41.2796ZM32.5167 41.7872L30.4765 43.9866L32.5167 41.7872ZM33.0639 42.2947L35.1041 40.0953L33.0639 42.2947ZM34.3346 43.0343L33.4184 45.891L34.3346 43.0343ZM35.0581 43.2664L35.9743 40.4097L35.0581 43.2664ZM35.7817 43.4984L36.6979 40.6418L35.7817 43.4984ZM37.1856 43.3757L35.7985 40.7157L37.1856 43.3757ZM37.8659 43.0209L36.4788 40.3609L37.8659 43.0209ZM38.5463 42.6661L39.9334 45.3262L38.5463 42.6661ZM39.4742 41.5536L36.6225 40.6221L39.4742 41.5536ZM39.7217 40.7959L42.5734 41.7274L39.7217 40.7959ZM40.0775 39.4138L42.1531 41.5799L40.0775 39.4138ZM39.9383 39.5473L42.0139 41.7134L39.9383 39.5473ZM39.799 39.6807L37.7234 37.5147L39.799 39.6807ZM39.3024 40.593L42.029 41.8442L39.3024 40.593ZM38.5876 42.1505L35.861 40.8993L38.5876 42.1505ZM37.4712 42.5381L36.0968 45.2048L37.4712 42.5381ZM36.7121 42.1469L38.0865 39.4802L36.7121 42.1469ZM35.9531 41.7557L37.3275 39.089L35.9531 41.7557ZM34.5452 41.0973L33.4031 43.8715L34.5452 41.0973ZM33.8963 40.8302L32.7543 43.6043L33.8963 40.8302ZM33.2474 40.5631L34.3895 37.789L33.2474 40.5631ZM32.1035 39.6882L34.4294 37.7935L32.1035 39.6882ZM31.1133 38.4727L28.7874 40.3675L31.1133 38.4727ZM30.8192 39.3537L28.0585 40.5277L30.8192 39.3537ZM25.9885 29.4936L27.5089 32.0798L25.9885 29.4936ZM26.1097 29.783L26.5001 32.7575L26.1097 29.783ZM27.6893 29.5757L28.0796 32.5502L27.6893 29.5757ZM28.6503 29.5153L29.3849 26.6066L28.6503 29.5153ZM28.9926 29.6017L28.258 32.5104L28.9926 29.6017ZM28.8714 29.2337L31.3165 27.4954L28.8714 29.2337ZM28.2866 28.411L30.7316 26.6727L28.2866 28.411ZM27.9941 28.0784H30.9941H27.9941ZM27.9941 28.1571H24.9941H27.9941ZM27.3256 28.7075L25.8052 26.1213L27.3256 28.7075ZM42.3882 29.6649L44.8162 31.4269L42.3882 29.6649ZM42.5089 29.985L41.6717 27.1042L42.5089 29.985ZM43.4038 29.7249L44.2411 32.6057L43.4038 29.7249ZM44.2034 29.453L45.3244 32.2356L44.2034 29.453ZM44.9078 29.1692L43.7868 26.3865L44.9078 29.1692ZM44.787 29.1377L45.4687 32.0592L44.787 29.1377ZM43.841 29.3585L43.1592 26.437L43.841 29.3585ZM43.368 29.1803L46.368 29.1807L43.368 29.1803ZM43.3681 28.8917L40.3681 28.8912L43.3681 28.8917ZM43.3681 28.6031L40.3681 28.6026L43.3681 28.6031ZM43.0415 28.7646L40.6135 27.0026L43.0415 28.7646ZM33.183 9.50817L35.8007 10.9736L36.1598 10.3322L33.5421 8.86675L30.9244 7.4013L30.5653 8.04272L33.183 9.50817ZM33.5421 8.86675L36.1598 10.3322C36.5163 9.69546 36.798 9.01249 37.019 8.30051L34.1539 7.41116L31.2887 6.52181C31.1728 6.89539 31.0467 7.18281 30.9244 7.4013L33.5421 8.86675ZM34.1539 7.41116L37.019 8.30051L37.2718 7.48635L34.4066 6.597L31.5415 5.70765L31.2887 6.52181L34.1539 7.41116ZM34.4066 6.597L37.2718 7.48635L37.5245 6.67218L34.6593 5.78283L31.7942 4.89349L31.5415 5.70765L34.4066 6.597ZM34.6593 5.78283L37.5245 6.67218C37.4946 6.76833 37.4192 6.94005 37.2578 7.11712C37.0943 7.29637 36.9167 7.39983 36.7895 7.45043L35.6805 4.66295L34.5714 1.87546C33.1875 2.42606 32.2217 3.51614 31.7942 4.89349L34.6593 5.78283ZM35.6805 4.66295L36.7895 7.45043L37.5579 7.14471L36.4489 4.35723L35.3399 1.56974L34.5714 1.87546L35.6805 4.66295ZM36.4489 4.35723L37.5579 7.14471L38.3263 6.83899L37.2173 4.05151L36.1083 1.26402L35.3399 1.56974L36.4489 4.35723ZM37.2173 4.05151L38.3263 6.83899C38.3392 6.83386 38.3455 6.83226 38.3456 6.83224C38.3457 6.8322 38.3447 6.83247 38.3426 6.83286C38.3405 6.83325 38.3376 6.83371 38.3341 6.83411C38.3267 6.83497 38.3188 6.83532 38.3115 6.83515C38.3042 6.83498 38.3003 6.83436 38.3006 6.83442L38.7749 3.87215L39.2492 0.909876C38.1701 0.737101 37.1047 0.867599 36.1083 1.26402L37.2173 4.05151ZM38.7749 3.87215L38.3006 6.83442L39.0899 6.96078L39.5641 3.99851L40.0384 1.03624L39.2492 0.909876L38.7749 3.87215ZM39.5641 3.99851L39.0899 6.96078L39.8791 7.08714L40.3534 4.12487L40.8276 1.1626L40.0384 1.03624L39.5641 3.99851ZM40.3534 4.12487L39.8791 7.08714C40.1171 7.12525 40.2711 7.1847 40.3707 7.23753L41.7758 4.58691L43.1809 1.93629C42.4362 1.54154 41.6419 1.29297 40.8276 1.1626L40.3534 4.12487ZM41.7758 4.58691L40.3707 7.23753L41.004 7.57321L42.4091 4.92259L43.8141 2.27197L43.1809 1.93629L41.7758 4.58691ZM42.4091 4.92259L41.004 7.57321L41.6372 7.90889L43.0423 5.25827L44.4474 2.60765L43.8141 2.27197L42.4091 4.92259ZM43.0423 5.25827L41.6372 7.90889C42.4459 8.33755 43.3107 8.57236 44.1847 8.66068L44.4863 5.67589L44.788 2.69109C44.5809 2.67016 44.483 2.62656 44.4474 2.60765L43.0423 5.25827ZM44.4863 5.67589L44.1847 8.66068L44.9955 8.74263L45.2971 5.75783L45.5988 2.77304L44.788 2.69109L44.4863 5.67589ZM45.2971 5.75783L44.9955 8.74263L45.8063 8.82457L46.1079 5.83977L46.4096 2.85498L45.5988 2.77304L45.2971 5.75783ZM46.1079 5.83977L45.8063 8.82457C45.6528 8.80906 45.358 8.74367 45.0447 8.51915C44.7251 8.29006 44.5471 8.01047 44.4636 7.81425L47.2242 6.63985L49.9848 5.46545C49.6976 4.79048 49.2318 4.13816 48.54 3.64238C47.8547 3.15117 47.1035 2.92512 46.4096 2.85498L46.1079 5.83977ZM47.2242 6.63985L44.4636 7.81425L44.7691 8.53239L47.5297 7.35799L50.2903 6.18359L49.9848 5.46545L47.2242 6.63985ZM47.5297 7.35799L44.7691 8.53239L45.0746 9.25052L47.8352 8.07612L50.5958 6.90172L50.2903 6.18359L47.5297 7.35799ZM47.8352 8.07612L45.0746 9.25052C45.2949 9.76825 45.5235 10.2751 45.7605 10.7709L48.4671 9.47696L51.1737 8.18306C50.9756 7.76857 50.7829 7.34151 50.5958 6.90172L47.8352 8.07612ZM48.4671 9.47696L45.7605 10.7709L46.0868 11.4536L48.7935 10.1597L51.5001 8.86577L51.1737 8.18306L48.4671 9.47696ZM48.7935 10.1597L46.0868 11.4536L46.4132 12.1363L49.1198 10.8424L51.8265 9.54847L51.5001 8.86577L48.7935 10.1597ZM49.1198 10.8424L46.4132 12.1363C46.3568 12.0183 46.3016 11.8412 46.2951 11.625C46.2885 11.4101 46.3325 11.2405 46.3729 11.1383L49.1624 12.2421L51.952 13.346C52.4416 12.1088 52.4117 10.7727 51.8265 9.54847L49.1198 10.8424ZM49.1624 12.2421L46.3729 11.1383L46.0892 11.8553L48.8787 12.9592L51.6682 14.063L51.952 13.346L49.1624 12.2421ZM48.8787 12.9592L46.0892 11.8553L45.8054 12.5724L48.5949 13.6762L51.3845 14.7801L51.6682 14.063L48.8787 12.9592ZM48.5949 13.6762L45.8054 12.5724C45.4039 13.5869 45.3112 14.6518 45.4931 15.6995L48.4489 15.1865L51.4047 14.6735C51.4019 14.6576 51.4057 14.6696 51.4026 14.7012C51.3995 14.7336 51.3915 14.7623 51.3845 14.7801L48.5949 13.6762ZM48.4489 15.1865L45.4931 15.6995L45.6307 16.4928L48.5865 15.9797L51.5423 15.4667L51.4047 14.6735L48.4489 15.1865ZM48.5865 15.9797L45.6307 16.4928L45.7684 17.286L48.7242 16.773L51.68 16.2599L51.5423 15.4667L48.5865 15.9797ZM48.7242 16.773L45.7684 17.286C45.8105 17.5285 45.8868 17.8821 46.0443 18.2551C46.1676 18.5472 46.5434 19.3528 47.4677 19.8649C48.663 20.5273 49.8546 20.238 50.5616 19.8312C51.1409 19.4979 51.4922 19.0562 51.6474 18.8472L49.2391 17.0583L46.8309 15.2694C46.8603 15.2297 47.0959 14.903 47.5694 14.6306C48.1706 14.2847 49.2664 14.002 50.3759 14.6169C51.2143 15.0815 51.5143 15.7853 51.5718 15.9214C51.6224 16.0413 51.6493 16.1336 51.6617 16.1802C51.6748 16.2296 51.6798 16.2585 51.68 16.2599L48.7242 16.773ZM49.2391 17.0583L51.6474 18.8472L52.0247 18.3393L49.6164 16.5504L47.2081 14.7615L46.8309 15.2694L49.2391 17.0583ZM49.6164 16.5504L52.0247 18.3393L52.4019 17.8315L49.9937 16.0426L47.5854 14.2537L47.2081 14.7615L49.6164 16.5504ZM49.9937 16.0426L52.4019 17.8315C52.2934 17.9776 52.1692 18.0835 52.06 18.152C51.9567 18.2168 51.8921 18.2327 51.9022 18.23L51.125 15.3324L50.3478 12.4349C49.3488 12.7028 48.3273 13.2549 47.5854 14.2537L49.9937 16.0426ZM51.125 15.3324L51.9022 18.23L52.6563 18.0278L51.8791 15.1302L51.1019 12.2326L50.3478 12.4349L51.125 15.3324ZM51.8791 15.1302L52.6563 18.0278L53.4103 17.8255L52.6331 14.9279L51.8559 12.0303L51.1019 12.2326L51.8791 15.1302ZM52.6331 14.9279L53.4103 17.8255C53.8826 17.6988 54.3484 17.5819 54.8075 17.4746L54.1248 14.5533L53.442 11.632C52.9178 11.7545 52.389 11.8873 51.8559 12.0303L52.6331 14.9279ZM54.1248 14.5533L54.8075 17.4746L55.5451 17.3022L54.8624 14.3809L54.1796 11.4596L53.442 11.632L54.1248 14.5533ZM54.8624 14.3809L55.5451 17.3022L56.2827 17.1298L55.5999 14.2085L54.9172 11.2872L54.1796 11.4596L54.8624 14.3809ZM55.5999 14.2085L56.2827 17.1298C56.2927 17.1274 56.299 17.1266 56.3021 17.1262C56.3052 17.1259 56.3069 17.1259 56.3079 17.1259C56.3089 17.1259 56.3113 17.1259 56.3156 17.1265C56.32 17.1271 56.3281 17.1284 56.3404 17.1315L57.0768 14.2233L57.8131 11.3151C56.8584 11.0733 55.8795 11.0623 54.9172 11.2872L55.5999 14.2085ZM57.0768 14.2233L56.3404 17.1315L57.0796 17.3187L57.816 14.4105L58.5523 11.5022L57.8131 11.3151L57.0768 14.2233ZM57.816 14.4105L57.0796 17.3187L57.8189 17.5059L58.5552 14.5976L59.2916 11.6894L58.5523 11.5022L57.816 14.4105ZM58.5552 14.5976L57.8189 17.5059C58.2453 17.6138 58.6911 17.7423 59.1568 17.8924L60.077 15.037L60.9972 12.1816C60.4195 11.9954 59.8508 11.831 59.2916 11.6894L58.5552 14.5976ZM60.077 15.037L59.1568 17.8924L59.9394 18.1446L60.8596 15.2892L61.7798 12.4338L60.9972 12.1816L60.077 15.037ZM60.8596 15.2892L59.9394 18.1446L60.7219 18.3968L61.6421 15.5414L62.5623 12.686L61.7798 12.4338L60.8596 15.2892ZM61.6421 15.5414L60.7219 18.3968C60.4807 18.319 60.1139 18.1237 59.8227 17.7263C59.5448 17.3469 59.4937 16.9985 59.4858 16.8711L62.48 16.6853L65.4743 16.4995C65.4295 15.7776 65.2202 14.9413 64.663 14.1807C64.0926 13.4019 63.3253 12.9319 62.5623 12.686L61.6421 15.5414ZM62.48 16.6853L59.4858 16.8711L59.5411 17.7627L62.5353 17.5769L65.5296 17.3911L65.4743 16.4995L62.48 16.6853ZM62.5353 17.5769L59.5411 17.7627L59.5964 18.6544L62.5907 18.4686L65.5849 18.2828L65.5296 17.3911L62.5353 17.5769ZM62.5907 18.4686L59.5964 18.6544C59.669 19.8242 60.0738 20.9825 60.9284 21.9429L63.1695 19.9486L65.4107 17.9543C65.4745 18.026 65.5252 18.1105 65.557 18.1917C65.5871 18.2687 65.5864 18.3073 65.5849 18.2828L62.5907 18.4686ZM63.1695 19.9486L60.9284 21.9429L61.4519 22.5312L63.693 20.5369L65.9342 18.5427L65.4107 17.9543L63.1695 19.9486ZM63.693 20.5369L61.4519 22.5312L61.9754 23.1196L64.2166 21.1253L66.4577 19.131L65.9342 18.5427L63.693 20.5369ZM64.2166 21.1253L61.9754 23.1196C61.8623 22.9925 61.6877 22.7367 61.6088 22.3565C61.5289 21.9713 61.5867 21.6477 61.655 21.4512L64.4885 22.4368L67.322 23.4224C67.5581 22.7438 67.6543 21.9605 67.4838 21.1382C67.3143 20.3207 66.9198 19.6503 66.4577 19.131L64.2166 21.1253ZM64.4885 22.4368L61.655 21.4512L61.4035 22.1745L64.237 23.16L67.0705 24.1456L67.322 23.4224L64.4885 22.4368ZM64.237 23.16L61.4035 22.1745L61.1519 22.8977L63.9854 23.8832L66.8189 24.8688L67.0705 24.1456L64.237 23.16ZM63.9854 23.8832L61.1519 22.8977C60.8783 23.6843 60.7358 24.4985 60.7099 25.3254L63.7084 25.4193L66.707 25.5132C66.715 25.2563 66.7571 25.0465 66.8189 24.8688L63.9854 23.8832ZM63.7084 25.4193L60.7099 25.3254L60.6844 26.1382L63.683 26.2321L66.6815 26.326L66.707 25.5132L63.7084 25.4193ZM63.683 26.2321L60.6844 26.1382L60.659 26.9511L63.6575 27.045L66.656 27.1389L66.6815 26.326L63.683 26.2321ZM63.6575 27.045L60.659 26.9511C60.6637 26.7997 60.7065 26.5369 60.8732 26.2501C61.0411 25.961 61.2554 25.7845 61.405 25.6948L62.9466 28.2684L64.4883 30.842C65.84 30.0323 66.6078 28.6793 66.656 27.1389L63.6575 27.045ZM62.9466 28.2684L61.405 25.6948L60.7196 26.1054L62.2612 28.679L63.8028 31.2526L64.4883 30.842L62.9466 28.2684ZM62.2612 28.679L60.7196 26.1054L60.0341 26.516L61.5758 29.0896L63.1174 31.6632L63.8028 31.2526L62.2612 28.679ZM61.5758 29.0896L60.0341 26.516C59.3089 26.9504 58.662 27.4904 58.1085 28.1339L60.383 30.0901L62.6574 32.0463C62.7804 31.9033 62.9287 31.7762 63.1174 31.6632L61.5758 29.0896ZM60.383 30.0901L58.1085 28.1339L57.6011 28.7238L59.8756 30.68L62.1501 32.6362L62.6574 32.0463L60.383 30.0901ZM59.8756 30.68L57.6011 28.7238L57.0937 29.3137L59.3682 31.27L61.6427 33.2262L62.1501 32.6362L59.8756 30.68ZM59.3682 31.27L57.0937 29.3137C56.8415 29.607 56.4578 30.0972 56.2227 30.7366C55.9697 31.425 55.7371 32.8254 56.7866 34.0496L59.0642 32.097L61.3417 30.1445C61.7407 30.6098 61.9544 31.1717 61.9976 31.7206C62.0371 32.2208 61.9287 32.6042 61.8543 32.8068C61.7206 33.1704 61.5566 33.3262 61.6427 33.2262L59.3682 31.27ZM59.0642 32.097L56.7866 34.0496L56.9899 34.2868L59.2675 32.3342L61.5451 30.3816L61.3417 30.1445L59.0642 32.097ZM59.2675 32.3342L56.9899 34.2868L57.1932 34.524L59.4708 32.5714L61.7484 30.6188L61.5451 30.3816L59.2675 32.3342ZM59.4708 32.5714L57.1932 34.524C57.8212 35.2564 58.6937 35.6525 59.1442 35.8462L60.329 33.0901L61.5138 30.3339C61.374 30.2738 61.3264 30.2446 61.3388 30.2521C61.3474 30.2573 61.39 30.2834 61.4532 30.333C61.5137 30.3805 61.624 30.4736 61.7484 30.6188L59.4708 32.5714ZM60.329 33.0901L59.1442 35.8462L59.7991 36.1277L60.9839 33.3716L62.1687 30.6155L61.5138 30.3339L60.329 33.0901ZM60.9839 33.3716L59.7991 36.1277L60.454 36.4093L61.6388 33.6531L62.8236 30.897L62.1687 30.6155L60.9839 33.3716ZM61.6388 33.6531L60.454 36.4093C60.7742 36.5469 61.052 36.6905 61.2924 36.8365L62.8497 34.2723L64.4069 31.7081C63.906 31.4039 63.3766 31.1347 62.8236 30.897L61.6388 33.6531ZM62.8497 34.2723L61.2924 36.8365L61.8484 37.1741L63.4056 34.6099L64.9629 32.0458L64.4069 31.7081L62.8497 34.2723ZM63.4056 34.6099L61.8484 37.1741L62.4043 37.5117L63.9616 34.9476L65.5188 32.3834L64.9629 32.0458L63.4056 34.6099ZM63.9616 34.9476L62.4043 37.5117C62.4668 37.5497 62.5176 37.5938 62.5678 37.6574L64.9231 35.7994L67.2785 33.9413C66.7879 33.3194 66.1976 32.7957 65.5188 32.3834L63.9616 34.9476ZM64.9231 35.7994L62.5678 37.6574L62.9734 38.1716L65.3287 36.3135L67.6841 34.4555L67.2785 33.9413L64.9231 35.7994ZM65.3287 36.3135L62.9734 38.1716L63.379 38.6857L65.7343 36.8277L68.0897 34.9697L67.6841 34.4555L65.3287 36.3135ZM65.7343 36.8277L63.379 38.6857C63.6932 39.0841 64.0424 39.4972 64.423 39.924L66.6619 37.9272L68.9009 35.9304C68.5855 35.5768 68.3162 35.2569 68.0897 34.9697L65.7343 36.8277ZM66.6619 37.9272L64.423 39.924L64.945 40.5093L67.184 38.5125L69.4229 36.5157L68.9009 35.9304L66.6619 37.9272ZM67.184 38.5125L64.945 40.5093L65.467 41.0946L67.706 39.0978L69.9449 37.101L69.4229 36.5157L67.184 38.5125ZM67.706 39.0978L65.467 41.0946C65.4335 41.057 65.3892 40.9943 65.3537 40.9108C65.3184 40.828 65.3071 40.7607 65.3043 40.7275L68.2941 40.4794L71.2838 40.2313C71.187 39.0647 70.735 37.987 69.9449 37.101L67.706 39.0978ZM68.2941 40.4794L65.3043 40.7275L65.3704 41.5238L68.3601 41.2757L71.3499 41.0276L71.2838 40.2313L68.2941 40.4794ZM68.3601 41.2757L65.3704 41.5238L65.4365 42.32L68.4262 42.072L71.4159 41.8239L71.3499 41.0276L68.3601 41.2757ZM68.4262 42.072L65.4365 42.32C65.4317 42.2625 65.4341 42.1677 65.4644 42.0549C65.4948 41.942 65.5403 41.8583 65.5737 41.8104L68.0363 43.5236L70.499 45.2369C71.2017 44.2269 71.5176 43.0494 71.4159 41.8239L68.4262 42.072ZM68.0363 43.5236L65.5737 41.8104L65.1177 42.4658L67.5803 44.179L70.043 45.8923L70.499 45.2369L68.0363 43.5236ZM67.5803 44.179L65.1177 42.4658L64.6617 43.1211L67.1244 44.8344L69.587 46.5477L70.043 45.8923L67.5803 44.179ZM67.1244 44.8344L64.6617 43.1211C64.4897 43.3685 64.3143 43.5604 64.1403 43.7113L66.1059 45.9777L68.0715 48.244C68.6475 47.7445 69.1512 47.1742 69.587 46.5477L67.1244 44.8344ZM66.1059 45.9777L64.1403 43.7113L63.5778 44.1992L65.5434 46.4655L67.509 48.7319L68.0715 48.244L66.1059 45.9777ZM65.5434 46.4655L63.5778 44.1992L63.0153 44.687L64.9809 46.9534L66.9465 49.2197L67.509 48.7319L65.5434 46.4655ZM64.9809 46.9534L63.0153 44.687C62.6641 44.9916 62.2981 45.2994 61.917 45.6103L63.8136 47.9347L65.7102 50.2592C66.1356 49.9121 66.5478 49.5656 66.9465 49.2197L64.9809 46.9534ZM63.8136 47.9347L61.917 45.6103L61.3122 46.1038L63.2088 48.4282L65.1054 50.7526L65.7102 50.2592L63.8136 47.9347ZM63.2088 48.4282L61.3122 46.1038L60.7074 46.5973L62.604 48.9217L64.5006 51.2461L65.1054 50.7526L63.2088 48.4282ZM62.604 48.9217L60.7074 46.5973C60.7431 46.5681 60.8057 46.5271 60.8912 46.4947C60.9765 46.4624 61.048 46.4525 61.0889 46.4508L61.2148 49.4482L61.3407 52.4455C62.507 52.3965 63.5922 51.9873 64.5006 51.2461L62.604 48.9217ZM61.2148 49.4482L61.0889 46.4508L60.3044 46.4837L60.4303 49.4811L60.5562 52.4785L61.3407 52.4455L61.2148 49.4482ZM60.4303 49.4811L60.3044 46.4837L59.52 46.5167L59.6459 49.514L59.7718 52.5114L60.5562 52.4785L60.4303 49.4811ZM59.6459 49.514L59.52 46.5167C59.1687 46.5314 58.8333 46.5155 58.5115 46.4718L58.1072 49.4444L57.7029 52.417C58.3869 52.5101 59.0773 52.5406 59.7718 52.5114L59.6459 49.514ZM58.1072 49.4444L58.5115 46.4718L57.7571 46.3692L57.3529 49.3418L56.9486 52.3145L57.7029 52.417L58.1072 49.4444ZM57.3529 49.3418L57.7571 46.3692L57.0028 46.2666L56.5985 49.2392L56.1943 52.2119L56.9486 52.3145L57.3529 49.3418ZM56.5985 49.2392L57.0028 46.2666C56.2591 46.1655 55.0362 46.1148 53.9013 46.808L55.465 49.3682L57.0287 51.9285C56.6924 52.1339 56.4035 52.1866 56.2772 52.2009C56.1524 52.2152 56.1127 52.2008 56.1943 52.2119L56.5985 49.2392ZM55.465 49.3682L53.9013 46.808L53.5221 47.0396L55.0858 49.5998L56.6496 52.1601L57.0287 51.9285L55.465 49.3682ZM55.0858 49.5998L53.5221 47.0396L53.143 47.2712L54.7067 49.8314L56.2704 52.3916L56.6496 52.1601L55.0858 49.5998ZM54.7067 49.8314L53.143 47.2712C52.7583 47.5061 52.1338 47.9923 51.7913 48.8646C51.4163 49.8195 51.5771 50.7209 51.8545 51.3421C52.2861 52.3088 53.0945 52.8453 53.3543 53.0177L55.0134 50.5183L56.6725 48.0188C56.6484 48.0028 56.7081 48.039 56.8052 48.1314C56.8816 48.2042 57.1367 48.4558 57.3331 48.8957C57.5593 49.4024 57.7134 50.1987 57.376 51.0578C57.0711 51.8342 56.5287 52.2339 56.2704 52.3916L54.7067 49.8314ZM55.0134 50.5183L53.3543 53.0177L54.0402 53.473L55.6993 50.9735L57.3584 48.474L56.6725 48.0188L55.0134 50.5183ZM55.6993 50.9735L54.0402 53.473L54.7261 53.9283L56.3852 51.4288L58.0443 48.9293L57.3584 48.474L55.6993 50.9735ZM56.3852 51.4288L54.7261 53.9283C54.8109 53.9846 54.8783 54.0515 54.9434 54.1584L57.506 52.5986L60.0686 51.0388C59.5538 50.1931 58.874 49.4801 58.0443 48.9293L56.3852 51.4288ZM57.506 52.5986L54.9434 54.1584L55.3783 54.873L57.9409 53.3132L60.5035 51.7534L60.0686 51.0388L57.506 52.5986ZM57.9409 53.3132L55.3783 54.873L55.8132 55.5875L58.3758 54.0277L60.9385 52.4679L60.5035 51.7534L57.9409 53.3132ZM58.3758 54.0277L55.8132 55.5875C55.7711 55.5184 55.7149 55.3954 55.6891 55.2303C55.6632 55.065 55.679 54.9295 55.6986 54.8484L58.6146 55.5535L61.5306 56.2586C61.8485 54.9439 61.6403 53.621 60.9385 52.4679L58.3758 54.0277ZM58.6146 55.5535L55.6986 54.8484L55.5025 55.6597L58.4184 56.3648L61.3344 57.0699L61.5306 56.2586L58.6146 55.5535ZM58.4184 56.3648L55.5025 55.6597L55.3063 56.4709L58.2223 57.176L61.1382 57.8811L61.3344 57.0699L58.4184 56.3648ZM58.2223 57.176L55.3063 56.4709C55.2953 56.5164 55.2857 56.5343 55.2853 56.5351C55.2847 56.5362 55.2848 56.5359 55.2855 56.5349C55.2862 56.5339 55.286 56.5344 55.284 56.5366L57.4912 58.5684L59.6985 60.6001C60.4198 59.8164 60.8947 58.8881 61.1382 57.8811L58.2223 57.176ZM57.4912 58.5684L55.284 56.5366L54.7491 57.1177L56.9563 59.1494L59.1636 61.1812L59.6985 60.6001L57.4912 58.5684ZM56.9563 59.1494L54.7491 57.1177L54.2142 57.6988L56.4214 59.7305L58.6287 61.7623L59.1636 61.1812L56.9563 59.1494ZM56.4214 59.7305L54.2142 57.6988C53.9268 58.011 53.6603 58.2679 53.4161 58.4767L55.3652 60.7572L57.3143 63.0378C57.7652 62.6524 58.2029 62.2248 58.6287 61.7623L56.4214 59.7305ZM55.3652 60.7572L53.4161 58.4767L52.8947 58.9223L54.8438 61.2028L56.793 63.4834L57.3143 63.0378L55.3652 60.7572ZM54.8438 61.2028L52.8947 58.9223L52.3733 59.3679L54.3224 61.6484L56.2716 63.929L56.793 63.4834L54.8438 61.2028ZM54.3224 61.6484L52.3733 59.3679C51.8237 59.8376 51.336 60.3818 50.9001 60.9695L53.3099 62.7564L55.7196 64.5434C55.9387 64.2479 56.126 64.0534 56.2716 63.929L54.3224 61.6484ZM53.3099 62.7564L50.9001 60.9695L50.4089 61.632L52.8187 63.4189L55.2284 65.2058L55.7196 64.5434L53.3099 62.7564ZM52.8187 63.4189L50.4089 61.632L49.9177 62.2944L52.3275 64.0813L54.7372 65.8682L55.2284 65.2058L52.8187 63.4189ZM52.3275 64.0813L49.9177 62.2944C50.0012 62.1818 50.1863 61.9848 50.4998 61.8393C50.8194 61.691 51.1175 61.6684 51.3141 61.6858L51.0497 64.6741L50.7853 67.6624C52.4043 67.8057 53.8216 67.1029 54.7372 65.8682L52.3275 64.0813ZM51.0497 64.6741L51.3141 61.6858L50.5276 61.6162L50.2632 64.6045L49.9988 67.5928L50.7853 67.6624L51.0497 64.6741ZM50.2632 64.6045L50.5276 61.6162L49.741 61.5466L49.4767 64.5349L49.2122 67.5232L49.9988 67.5928L50.2632 64.6045ZM49.4767 64.5349L49.741 61.5466C49.3866 61.5152 49.0654 61.4565 48.7732 61.3757L47.9735 64.2671L47.1737 67.1585C47.8371 67.342 48.518 67.4618 49.2122 67.5232L49.4767 64.5349ZM47.9735 64.2671L48.7732 61.3757L48.0566 61.1775L47.2569 64.0689L46.4571 66.9603L47.1737 67.1585L47.9735 64.2671ZM47.2569 64.0689L48.0566 61.1775L47.34 60.9792L46.5402 63.8707L45.7405 66.7621L46.4571 66.9603L47.2569 64.0689ZM46.5402 63.8707L47.34 60.9792C47.0989 60.9126 46.8649 60.8166 46.634 60.6871L45.1656 63.3031L43.6972 65.9192C44.3437 66.2821 45.0261 66.5645 45.7405 66.7621L46.5402 63.8707ZM45.1656 63.3031L46.634 60.6871L45.9761 60.3178L44.5077 62.9338L43.0392 65.5499L43.6972 65.9192L45.1656 63.3031ZM44.5077 62.9338L45.9761 60.3178L45.3181 59.9484L43.8497 62.5645L42.3813 65.1806L43.0392 65.5499L44.5077 62.9338ZM43.8497 62.5645L45.3181 59.9484C45.0293 59.7863 44.7381 59.5904 44.445 59.3559L42.5708 61.6984L40.6967 64.041C41.2314 64.4688 41.7928 64.8502 42.3813 65.1806L43.8497 62.5645ZM42.5708 61.6984L44.445 59.3559L43.8241 58.8591L41.9499 61.2017L40.0758 63.5443L40.6967 64.041L42.5708 61.6984ZM41.9499 61.2017L43.8241 58.8591L43.2032 58.3624L41.3291 60.705L39.4549 63.0475L40.0758 63.5443L41.9499 61.2017ZM41.3291 60.705L43.2032 58.3624C43.0934 58.2746 43.0325 58.2141 43.0053 58.1844C42.9775 58.1542 42.9979 58.1703 43.0359 58.2365L40.4332 59.7284L37.8304 61.2204C38.2639 61.9766 38.865 62.5756 39.4549 63.0475L41.3291 60.705ZM40.4332 59.7284L43.0359 58.2365L42.7609 57.7567L40.1581 59.2486L37.5554 60.7406L37.8304 61.2204L40.4332 59.7284ZM40.1581 59.2486L42.7609 57.7567L42.4859 57.2769L39.8831 58.7689L37.2804 60.2608L37.5554 60.7406L40.1581 59.2486ZM39.8831 58.7689L42.4859 57.2769C42.4527 57.2192 42.2704 56.8893 41.9936 56.5865C41.9128 56.4981 41.7268 56.3026 41.4467 56.1128C41.2491 55.9789 40.4899 55.4856 39.4043 55.6124C38.0134 55.7748 37.281 56.7608 37.0073 57.372C36.7742 57.8923 36.7505 58.3467 36.7446 58.4958C36.7232 59.0357 36.8639 59.5174 36.8662 59.5262C36.9078 59.6887 36.9595 59.8601 37.0104 60.0203L39.8695 59.1117L42.7286 58.2031C42.7117 58.15 42.6992 58.109 42.6903 58.0787C42.681 58.0473 42.6779 58.0349 42.6785 58.0374C42.679 58.0392 42.6814 58.0486 42.6849 58.0644C42.6883 58.0794 42.6944 58.1075 42.7013 58.1456C42.7051 58.1667 42.7527 58.409 42.7398 58.7335C42.7345 58.8684 42.7128 59.3118 42.483 59.8247C42.2127 60.4283 41.485 61.4102 40.1003 61.5719C39.0209 61.698 38.2691 61.2074 38.0805 61.0795C37.8093 60.8958 37.6337 60.7098 37.5646 60.6342C37.3349 60.3828 37.2218 60.1586 37.2804 60.2608L39.8831 58.7689ZM39.8695 59.1117L37.0104 60.0203L37.2718 60.843L40.1309 59.9344L42.9901 59.0258L42.7286 58.2031L39.8695 59.1117ZM40.1309 59.9344L37.2718 60.843L37.5333 61.6656L40.3924 60.757L43.2515 59.8485L42.9901 59.0258L40.1309 59.9344ZM40.3924 60.757L37.5333 61.6656C37.4739 61.4789 37.4095 61.1034 37.5465 60.6486C37.6822 60.1982 37.9363 59.9324 38.0673 59.8243L39.9763 62.1386L41.8853 64.4528C42.4679 63.9722 43.0173 63.2898 43.2916 62.3789C43.5673 61.4636 43.4851 60.5837 43.2515 59.8485L40.3924 60.757ZM39.9763 62.1386L38.0673 59.8243L37.3898 60.3832L39.2988 62.6974L41.2078 65.0117L41.8853 64.4528L39.9763 62.1386ZM39.2988 62.6974L37.3898 60.3832L36.7123 60.942L38.6213 63.2563L40.5302 65.5706L41.2078 65.0117L39.2988 62.6974ZM38.6213 63.2563L36.7123 60.942C35.9812 61.5451 35.3555 62.2825 34.9146 63.1682L37.6002 64.5052L40.2858 65.8422C40.3029 65.8079 40.358 65.7127 40.5302 65.5706L38.6213 63.2563ZM37.6002 64.5052L34.9146 63.1682L34.5711 63.8583L37.2567 65.1953L39.9423 66.5322L40.2858 65.8422L37.6002 64.5052ZM37.2567 65.1953L34.5711 63.8583L34.2275 64.5483L36.9132 65.8853L39.5988 67.2223L39.9423 66.5322L37.2567 65.1953ZM36.9132 65.8853L34.2275 64.5483C34.3008 64.4012 34.4473 64.1899 34.6978 64.0074C34.9479 63.8253 35.1915 63.752 35.3484 63.7279L35.8043 66.693L36.2602 69.6582C37.7289 69.4324 38.9329 68.5598 39.5988 67.2223L36.9132 65.8853ZM35.8043 66.693L35.3484 63.7279L34.5831 63.8456L35.039 66.8107L35.4949 69.7759L36.2602 69.6582L35.8043 66.693ZM35.039 66.8107L34.5831 63.8456L33.8178 63.9632L34.2737 66.9284L34.7296 69.8935L35.4949 69.7759L35.039 66.8107ZM34.2737 66.9284L33.8178 63.9632C33.0745 64.0775 32.3527 64.2776 31.6587 64.5657L32.8089 67.3364L33.9591 70.1072C34.1977 70.0081 34.4524 69.9362 34.7296 69.8935L34.2737 66.9284ZM32.8089 67.3364L31.6587 64.5657L30.9592 64.8561L32.1094 67.6268L33.2596 70.3976L33.9591 70.1072L32.8089 67.3364ZM32.1094 67.6268L30.9592 64.8561L30.2597 65.1465L31.4099 67.9172L32.56 70.688L33.2596 70.3976L32.1094 67.6268ZM31.4099 67.9172L30.2597 65.1465C30.1538 65.1904 29.9945 65.2339 29.7517 65.2437L29.8722 68.2413L29.9927 71.2388C30.8674 71.2037 31.7332 71.0312 32.56 70.688L31.4099 67.9172ZM29.8722 68.2413L29.7517 65.2437L28.9136 65.2774L29.034 68.2749L29.1545 71.2725L29.9927 71.2388L29.8722 68.2413ZM29.034 68.2749L28.9136 65.2774L28.0754 65.3111L28.1959 68.3086L28.3163 71.3062L29.1545 71.2725L29.034 68.2749ZM28.1959 68.3086L28.0754 65.3111C28.2801 65.3028 28.622 65.3433 28.9806 65.5536C29.3314 65.7594 29.51 66.0172 29.5785 66.1436L26.9407 67.5726L24.3029 69.0015C24.6494 69.6411 25.1762 70.2782 25.9454 70.7293C26.7224 71.1849 27.5528 71.3369 28.3163 71.3062L28.1959 68.3086ZM26.9407 67.5726L29.5785 66.1436L29.1615 65.3738L26.5237 66.8028L23.8859 68.2318L24.3029 69.0015L26.9407 67.5726ZM26.5237 66.8028L29.1615 65.3738L28.7445 64.6041L26.1067 66.0331L23.4689 67.4621L23.8859 68.2318L26.5237 66.8028ZM26.1067 66.0331L28.7445 64.6041C28.2815 63.7493 27.6543 62.9844 26.8389 62.3838L25.0596 64.7991L23.2802 67.2144C23.3051 67.2327 23.376 67.2905 23.4689 67.4621L26.1067 66.0331ZM25.0596 64.7991L26.8389 62.3838L26.2088 61.9195L24.4294 64.3349L22.6501 66.7502L23.2802 67.2144L25.0596 64.7991ZM24.4294 64.3349L26.2088 61.9195L25.5786 61.4553L23.7993 63.8707L22.0199 66.286L22.6501 66.7502L24.4294 64.3349ZM23.7993 63.8707L25.5786 61.4553C25.6947 61.5408 25.8597 61.7012 25.9883 61.9498C26.1172 62.1991 26.1541 62.4297 26.1565 62.5811L23.1568 62.6285L20.1572 62.6759C20.1803 64.1376 20.851 65.4249 22.0199 66.286L23.7993 63.8707ZM23.1568 62.6285L26.1565 62.5811L26.1442 61.8031L23.1445 61.8505L20.1449 61.898L20.1572 62.6759L23.1568 62.6285ZM23.1445 61.8505L26.1442 61.8031L26.1319 61.0252L23.1322 61.0726L20.1326 61.12L20.1449 61.898L23.1445 61.8505ZM23.1322 61.0726L26.1319 61.0252C26.1224 60.4243 26.0883 59.8306 26.0288 59.2445L23.0441 59.5471L20.0594 59.8498C20.1011 60.2604 20.1257 60.6836 20.1326 61.12L23.1322 61.0726ZM23.0441 59.5471L26.0288 59.2445L25.953 58.4969L22.9683 58.7996L19.9836 59.1022L20.0594 59.8498L23.0441 59.5471ZM22.9683 58.7996L25.953 58.4969L25.8772 57.7494L22.8925 58.052L19.9078 58.3547L19.9836 59.1022L22.9683 58.7996ZM22.8925 58.052L25.8772 57.7494C25.8842 57.8179 25.8809 57.9031 25.8608 57.991C25.841 58.0773 25.8131 58.1309 25.8033 58.1474L23.2207 56.621L20.638 55.0946C20.0626 56.0682 19.7889 57.182 19.9078 58.3547L22.8925 58.052ZM23.2207 56.621L25.8033 58.1474L26.2073 57.464L23.6246 55.9375L21.042 54.4111L20.638 55.0946L23.2207 56.621ZM23.6246 55.9375L26.2073 57.464L26.6112 56.7805L24.0286 55.2541L21.4459 53.7277L21.042 54.4111L23.6246 55.9375ZM24.0286 55.2541L26.6112 56.7805C26.6999 56.6305 26.8685 56.3369 26.9915 55.9882C27.0414 55.847 27.1885 55.4178 27.178 54.8593C27.1665 54.2459 26.8955 52.8318 25.4074 52.1518C24.3138 51.652 23.3499 51.9751 23.1713 52.0338C22.8485 52.14 22.6048 52.2782 22.4865 52.3487C22.2311 52.5009 22.0077 52.675 21.8577 52.7967L23.7483 55.126L25.6389 57.4553C25.717 57.3919 25.6763 57.4325 25.5583 57.5028C25.5087 57.5323 25.3223 57.6426 25.0456 57.7336C24.9131 57.7771 23.9838 58.098 22.9135 57.6089C21.4488 56.9395 21.1899 55.549 21.179 54.9721C21.1692 54.4501 21.3057 54.0703 21.3336 53.9914C21.4127 53.7672 21.4919 53.6498 21.4459 53.7277L24.0286 55.2541ZM23.7483 55.126L21.8577 52.7967L21.1735 53.3521L23.0641 55.6814L24.9547 58.0107L25.6389 57.4553L23.7483 55.126ZM23.0641 55.6814L21.1735 53.3521L20.4892 53.9075L22.3798 56.2367L24.2705 58.566L24.9547 58.0107L23.0641 55.6814ZM22.3798 56.2367L20.4892 53.9075C20.298 54.0626 20.1459 54.1346 20.0299 54.171L20.9298 57.0329L21.8296 59.8948C22.7348 59.6102 23.5493 59.1513 24.2705 58.566L22.3798 56.2367ZM20.9298 57.0329L20.0299 54.171L19.2641 54.4118L20.1639 57.2737L21.0637 60.1356L21.8296 59.8948L20.9298 57.0329ZM20.1639 57.2737L19.2641 54.4118L18.4983 54.6526L19.3981 57.5145L20.2979 60.3764L21.0637 60.1356L20.1639 57.2737ZM19.3981 57.5145L18.4983 54.6526C18.266 54.7257 18.0553 54.756 17.8569 54.7562L17.8605 57.7562L17.864 60.7562C18.6946 60.7552 19.509 60.6244 20.2979 60.3764L19.3981 57.5145ZM17.8605 57.7562L17.8569 54.7562L17.0851 54.7571L17.0887 57.7571L17.0922 60.7571L17.864 60.7562L17.8605 57.7562ZM17.0887 57.7571L17.0851 54.7571L16.3134 54.758L16.3169 57.758L16.3204 60.758L17.0922 60.7571L17.0887 57.7571ZM16.3169 57.758L16.3134 54.758C15.7879 54.7586 15.2511 54.7622 14.7032 54.7686L14.7384 57.7684L14.7735 60.7682C15.3013 60.762 15.8169 60.7586 16.3204 60.758L16.3169 57.758ZM14.7384 57.7684L14.7032 54.7686L13.8965 54.778L13.9316 57.7778L13.9667 60.7776L14.7735 60.7682L14.7384 57.7684ZM13.9316 57.7778L13.8965 54.778L13.0897 54.7875L13.1248 57.7873L13.1599 60.7871L13.9667 60.7776L13.9316 57.7778ZM13.1248 57.7873L13.0897 54.7875C13.3066 54.7849 13.6472 54.838 13.9961 55.0534C14.3363 55.2633 14.5088 55.5189 14.576 55.6465L11.922 57.0451L9.2679 58.4436C9.59921 59.0723 10.1042 59.7022 10.8454 60.1595C11.5952 60.6222 12.4052 60.7959 13.1599 60.7871L13.1248 57.7873ZM11.922 57.0451L14.576 55.6465L14.1799 54.8948L11.5259 56.2934L8.87182 57.6919L9.2679 58.4436L11.922 57.0451ZM11.5259 56.2934L14.1799 54.8948L13.7838 54.1432L11.1298 55.5417L8.47573 56.9403L8.87182 57.6919L11.5259 56.2934ZM11.1298 55.5417L13.7838 54.1432C13.2728 53.1733 12.5222 52.3577 11.5359 51.7912L10.0417 54.3926L8.54754 56.9941C8.53894 56.9891 8.52751 56.9817 8.51476 56.9717C8.50199 56.9616 8.49065 56.9511 8.48135 56.9413C8.46126 56.9201 8.46187 56.914 8.47573 56.9403L11.1298 55.5417ZM10.0417 54.3926L11.5359 51.7912L10.8438 51.3937L9.34969 53.9952L7.85554 56.5966L8.54754 56.9941L10.0417 54.3926ZM9.34969 53.9952L10.8438 51.3937L10.1518 50.9963L8.65769 53.5977L7.16353 56.1991L7.85554 56.5966L9.34969 53.9952ZM8.65769 53.5977L10.1518 50.9963C10.2447 51.0496 10.3888 51.1571 10.521 51.3378C10.6543 51.5202 10.7205 51.7019 10.7476 51.8335L7.80893 52.4372L4.8703 53.0409C5.1526 54.415 5.97757 55.518 7.16353 56.1991L8.65769 53.5977ZM7.80893 52.4372L10.7476 51.8335L10.5908 51.0705L7.65218 51.6742L4.71355 52.2779L4.8703 53.0409L7.80893 52.4372ZM7.65218 51.6742L10.5908 51.0705L10.4341 50.3075L7.49542 50.9112L4.5568 51.5149L4.71355 52.2779L7.65218 51.6742ZM7.49542 50.9112L10.4341 50.3075C10.3526 49.9112 10.2922 49.5018 10.2536 49.0783L7.26595 49.3508L4.27835 49.6233C4.33669 50.263 4.4292 50.8938 4.5568 51.5149L7.49542 50.9112ZM7.26595 49.3508L10.2536 49.0783L10.1808 48.2809L7.19323 48.5534L4.20563 48.8259L4.27835 49.6233L7.26595 49.3508ZM7.19323 48.5534L10.1808 48.2809L10.1081 47.4835L7.12051 47.756L4.13291 48.0285L4.20563 48.8259L7.19323 48.5534ZM7.12051 47.756L10.1081 47.4835C10.1077 47.4789 10.108 47.4794 10.1078 47.484C10.1076 47.4887 10.107 47.4949 10.1058 47.5017C10.1046 47.5084 10.1033 47.513 10.1027 47.5147C10.1022 47.5163 10.1032 47.5127 10.1075 47.5036L7.39399 46.2243L4.68046 44.9449C4.22498 45.911 4.03516 46.9567 4.13291 48.0285L7.12051 47.756ZM7.39399 46.2243L10.1075 47.5036L10.4537 46.7693L7.74019 45.49L5.02666 44.2106L4.68046 44.9449L7.39399 46.2243ZM7.74019 45.49L10.4537 46.7693L10.7999 46.035L8.0864 44.7557L5.37287 43.4763L5.02666 44.2106L7.74019 45.49ZM8.0864 44.7557L10.7999 46.035C10.8808 45.8636 10.9829 45.72 11.1146 45.5902L9.00871 43.4535L6.90283 41.3169C6.26642 41.9441 5.75365 42.6687 5.37287 43.4763L8.0864 44.7557ZM9.00871 43.4535L11.1146 45.5902L11.6907 45.0224L9.58482 42.8857L7.47894 40.7491L6.90283 41.3169L9.00871 43.4535ZM9.58482 42.8857L11.6907 45.0224L12.2668 44.4546L10.1609 42.3179L8.05505 40.1813L7.47894 40.7491L9.58482 42.8857ZM10.1609 42.3179L12.2668 44.4546C12.5418 44.1835 12.8137 43.957 13.0811 43.7688L11.3541 41.3157L9.62724 38.8626C9.07179 39.2536 8.54821 39.6952 8.05505 40.1813L10.1609 42.3179ZM11.3541 41.3157L13.0811 43.7688L13.6981 43.3344L11.9712 40.8813L10.2443 38.4281L9.62724 38.8626L11.3541 41.3157ZM11.9712 40.8813L13.6981 43.3344L14.3152 42.9L12.5883 40.4469L10.8614 37.9937L10.2443 38.4281L11.9712 40.8813ZM12.5883 40.4469L14.3152 42.9C14.4852 42.7803 15.0322 42.404 15.4251 41.8509C15.5461 41.6806 15.7582 41.3502 15.8908 40.887C16.0316 40.3948 16.1182 39.6021 15.7259 38.7581C15.3367 37.9209 14.6844 37.4815 14.2384 37.2746C13.8135 37.0776 13.436 37.0201 13.2322 36.9987L12.9184 39.9822L12.6046 42.9658C12.4487 42.9494 12.1095 42.9012 11.7137 42.7176C11.2967 42.5242 10.6639 42.1025 10.2849 41.2871C9.90281 40.465 9.9901 39.6984 10.1223 39.2364C10.2462 38.8036 10.4402 38.5077 10.5337 38.3761C10.6401 38.2263 10.736 38.1243 10.7847 38.0747C10.8381 38.0204 10.8782 37.9855 10.8942 37.9718C10.9237 37.9467 10.9201 37.9524 10.8614 37.9937L12.5883 40.4469ZM12.9184 39.9822L13.2322 36.9987L12.9452 36.9685L12.6314 39.9521L12.3176 42.9356L12.6046 42.9658L12.9184 39.9822ZM12.6314 39.9521L12.9452 36.9685L12.6581 36.9383L12.3443 39.9219L12.0305 42.9054L12.3176 42.9356L12.6314 39.9521ZM12.3443 39.9219L12.6581 36.9383C12.4091 36.9121 12.0033 36.8803 11.4845 36.8434L11.2718 39.8358L11.0591 42.8283C11.5876 42.8659 11.8968 42.8913 12.0305 42.9054L12.3443 39.9219ZM11.2718 39.8358L11.4845 36.8434L10.699 36.7876L10.4864 39.78L10.2737 42.7725L11.0591 42.8283L11.2718 39.8358ZM10.4864 39.78L10.699 36.7876L9.91357 36.7318L9.70089 39.7242L9.48821 42.7167L10.2737 42.7725L10.4864 39.78ZM9.70089 39.7242L9.91357 36.7318C10.0857 36.744 10.329 36.8015 10.5768 36.9542C10.8204 37.1043 10.9604 37.2797 11.0246 37.3825L8.48042 38.9722L5.93626 40.5619C6.70907 41.7987 7.96097 42.6081 9.48821 42.7167L9.70089 39.7242ZM8.48042 38.9722L11.0246 37.3825L10.5896 36.6863L8.04542 38.276L5.50125 39.8658L5.93626 40.5619L8.48042 38.9722ZM8.04542 38.276L10.5896 36.6863L10.1546 35.9901L7.61041 37.5799L5.06625 39.1696L5.50125 39.8658L8.04542 38.276ZM7.61041 37.5799L10.1546 35.9901C9.61986 35.1344 8.90623 34.423 8.02845 33.899L6.49073 36.475L4.95301 39.0509C4.98813 39.0719 5.02096 39.0971 5.06625 39.1696L7.61041 37.5799ZM6.49073 36.475L8.02845 33.899L7.34377 33.4903L5.80606 36.0662L4.26834 38.6422L4.95301 39.0509L6.49073 36.475ZM5.80606 36.0662L7.34377 33.4903L6.6591 33.0816L5.12138 35.6575L3.58366 38.2335L4.26834 38.6422L5.80606 36.0662ZM5.12138 35.6575L6.6591 33.0816C6.72786 33.1226 6.83078 33.2015 6.92831 33.3279C7.02615 33.4546 7.07914 33.5781 7.10373 33.6641L4.2194 34.4891L1.33506 35.314C1.69189 36.5616 2.47862 37.5738 3.58366 38.2335L5.12138 35.6575ZM4.2194 34.4891L7.10373 33.6641L6.88643 32.9043L4.00209 33.7293L1.11776 34.5543L1.33506 35.314L4.2194 34.4891ZM4.00209 33.7293L6.88643 32.9043L6.66912 32.1446L3.78479 32.9696L0.900452 33.7946L1.11776 34.5543L4.00209 33.7293ZM3.78479 32.9696L6.66912 32.1446C6.70859 32.2826 6.73319 32.482 6.69606 32.7101C6.6595 32.9345 6.57857 33.0923 6.52577 33.1725L4.02052 31.5221L1.51527 29.8717C0.755271 31.0254 0.503699 32.4074 0.900452 33.7946L3.78479 32.9696ZM4.02052 31.5221L6.52577 33.1725L6.97881 32.4848L4.47356 30.8344L1.96831 29.184L1.51527 29.8717L4.02052 31.5221ZM4.47356 30.8344L6.97881 32.4848L7.43185 31.7971L4.9266 30.1467L2.42134 28.4963L1.96831 29.184L4.47356 30.8344ZM4.9266 30.1467L7.43185 31.7971C7.95905 30.9968 8.33079 30.0782 8.43876 29.06L5.45549 28.7436L2.47221 28.4273C2.47495 28.4015 2.4801 28.3887 2.47816 28.3939C2.47566 28.4005 2.46194 28.4347 2.42134 28.4963L4.9266 30.1467ZM5.45549 28.7436L8.43876 29.06L8.51461 28.3446L5.53134 28.0283L2.54806 27.712L2.47221 28.4273L5.45549 28.7436ZM5.53134 28.0283L8.51461 28.3446L8.59047 27.6293L5.60719 27.313L2.62391 26.9966L2.54806 27.712L5.53134 28.0283ZM5.60719 27.313L8.59047 27.6293C8.58307 27.699 8.56134 27.7941 8.51412 27.8968C8.46706 27.9992 8.41131 28.073 8.37012 28.117L6.18012 26.0667L3.99011 24.0164C3.21809 24.841 2.74411 25.8631 2.62391 26.9966L5.60719 27.313ZM6.18012 26.0667L8.37012 28.117L8.8672 27.5861L6.67719 25.5357L4.48718 23.4854L3.99011 24.0164L6.18012 26.0667ZM6.67719 25.5357L8.8672 27.5861L9.36427 27.0551L7.17427 25.0048L4.98426 22.9545L4.48718 23.4854L6.67719 25.5357ZM7.17427 25.0048L9.36427 27.0551C9.64886 26.7512 9.96816 26.4312 10.324 26.0952L8.26441 23.9139L6.20479 21.7326C5.76989 22.1432 5.36244 22.5505 4.98426 22.9545L7.17427 25.0048ZM8.26441 23.9139L10.324 26.0952L10.9171 25.5352L8.85747 23.3539L6.79785 21.1726L6.20479 21.7326L8.26441 23.9139ZM8.85747 23.3539L10.9171 25.5352L11.5102 24.9752L9.45054 22.7939L7.39092 20.6126L6.79785 21.1726L8.85747 23.3539ZM9.45054 22.7939L11.5102 24.9752C11.4519 25.0302 11.3463 25.1088 11.1952 25.1682C11.0437 25.2277 10.9097 25.243 10.8233 25.2421L10.8543 22.2423L10.8854 19.2425C9.5631 19.2288 8.34716 19.7097 7.39092 20.6126L9.45054 22.7939ZM10.8543 22.2423L10.8233 25.2421L11.6341 25.2505L11.6651 22.2507L11.6961 19.2509L10.8854 19.2425L10.8543 22.2423ZM11.6651 22.2507L11.6341 25.2505L12.4448 25.2589L12.4758 22.2591L12.5069 19.2592L11.6961 19.2509L11.6651 22.2507ZM12.4758 22.2591L12.4448 25.2589C12.8283 25.2629 13.1822 25.2965 13.5095 25.3552L14.0387 22.4023L14.5679 19.4493C13.8924 19.3282 13.2043 19.2664 12.5069 19.2592L12.4758 22.2591ZM14.0387 22.4023L13.5095 25.3552L14.2616 25.49L14.7908 22.5371L15.3201 19.5841L14.5679 19.4493L14.0387 22.4023ZM14.7908 22.5371L14.2616 25.49L15.0138 25.6248L15.543 22.6719L16.0722 19.7189L15.3201 19.5841L14.7908 22.5371ZM15.543 22.6719L15.0138 25.6248C15.2584 25.6686 15.3393 25.6883 15.3271 25.6852C15.3178 25.6827 15.2756 25.6717 15.214 25.6514C15.1772 25.6393 15.0097 25.5847 14.8029 25.4764C14.7048 25.4251 14.4842 25.3037 14.242 25.0941C14.0571 24.934 13.4707 24.3958 13.2726 23.4423C13.0184 22.2185 13.5616 21.2326 14.1043 20.6989C14.5406 20.2698 14.9929 20.0912 15.1436 20.0346L16.1992 22.8427L17.2548 25.6509C17.4134 25.5912 17.8715 25.4094 18.3114 24.9767C18.8576 24.4396 19.4023 23.4499 19.1472 22.222C18.9483 21.2645 18.3589 20.722 18.1686 20.5574C17.9212 20.3432 17.6931 20.217 17.5853 20.1606C17.224 19.9715 16.8739 19.8879 16.8391 19.8788C16.6081 19.8187 16.329 19.7649 16.0722 19.7189L15.543 22.6719ZM16.1992 22.8427L15.1436 20.0346L15.0476 20.0706L16.1032 22.8788L17.1588 25.6869L17.2548 25.6509L16.1992 22.8427ZM16.1032 22.8788L15.0476 20.0706L14.9517 20.1067L16.0073 22.9149L17.0628 25.723L17.1588 25.6869L16.1032 22.8788ZM16.0073 22.9149L14.9517 20.1067C15.9623 19.7268 16.8673 19.9833 17.3972 20.2671C17.8633 20.5167 18.14 20.8275 18.2452 20.9526C18.467 21.2161 18.5708 21.4429 18.5724 21.4462C18.6036 21.5105 18.5832 21.4791 18.5098 21.2585L15.6633 22.2059L12.8169 23.1534C12.9087 23.4294 13.0283 23.7645 13.1742 24.0651C13.2331 24.1865 13.3879 24.499 13.6543 24.8156C13.7819 24.9672 14.0793 25.2964 14.5646 25.5563C15.1136 25.8503 16.0363 26.1089 17.0628 25.723L16.0073 22.9149ZM15.6633 22.2059L18.5098 21.2585L18.2618 20.5135L15.4153 21.4609L12.5689 22.4083L12.8169 23.1534L15.6633 22.2059ZM15.4153 21.4609L18.2618 20.5135L18.0138 19.7684L15.1674 20.7159L12.3209 21.6633L12.5689 22.4083L15.4153 21.4609ZM15.1674 20.7159L18.0138 19.7684C17.954 19.5887 17.9309 19.4252 17.9342 19.264L14.9348 19.2038L11.9354 19.1436C11.9181 20.0051 12.0501 20.8497 12.3209 21.6633L15.1674 20.7159ZM14.9348 19.2038L17.9342 19.264L17.9496 18.4969L14.9502 18.4367L11.9508 18.3765L11.9354 19.1436L14.9348 19.2038ZM14.9502 18.4367L17.9496 18.4969L17.965 17.7297L14.9656 17.6695L11.9662 17.6094L11.9508 18.3765L14.9502 18.4367ZM14.9656 17.6695L17.965 17.7297C17.9783 17.0669 17.9413 16.4106 17.8502 15.7632L14.8795 16.1814L11.9088 16.5995C11.953 16.9136 11.9734 17.2494 11.9662 17.6094L14.9656 17.6695ZM14.8795 16.1814L17.8502 15.7632L17.7487 15.0421L14.778 15.4603L11.8073 15.8784L11.9088 16.5995L14.8795 16.1814ZM14.778 15.4603L17.7487 15.0421L17.6472 14.321L14.6765 14.7392L11.7058 15.1573L11.8073 15.8784L14.778 15.4603ZM14.6765 14.7392L17.6472 14.321C17.633 14.22 17.632 14.0861 17.673 13.9005L14.7433 13.2545L11.8137 12.6085C11.6301 13.441 11.5846 14.2969 11.7058 15.1573L14.6765 14.7392ZM14.7433 13.2545L17.673 13.9005L17.8414 13.1368L14.9117 12.4908L11.9821 11.8448L11.8137 12.6085L14.7433 13.2545ZM14.9117 12.4908L17.8414 13.1368L18.0097 12.3732L15.0801 11.7272L12.1505 11.0812L11.9821 11.8448L14.9117 12.4908ZM15.0801 11.7272L18.0097 12.3732C17.9856 12.4828 17.9275 12.6423 17.8086 12.8073C17.6898 12.9722 17.5581 13.0763 17.465 13.1322L15.9212 10.5599L14.3775 7.98752C13.2246 8.6794 12.441 9.76377 12.1505 11.0812L15.0801 11.7272ZM15.9212 10.5599L17.465 13.1322L18.1377 12.7285L16.594 10.1561L15.0503 7.58379L14.3775 7.98752L15.9212 10.5599ZM16.594 10.1561L18.1377 12.7285L18.8104 12.3248L17.2667 9.75241L15.723 7.18007L15.0503 7.58379L16.594 10.1561ZM17.2667 9.75241L18.8104 12.3248C19.2423 12.0656 19.6607 11.8202 20.0657 11.5885L18.5758 8.98461L17.0859 6.38072C16.6424 6.63445 16.1881 6.90095 15.723 7.18007L17.2667 9.75241ZM18.5758 8.98461L20.0657 11.5885L20.702 11.2244L19.2121 8.62053L17.7222 6.01664L17.0859 6.38072L18.5758 8.98461ZM19.2121 8.62053L20.702 11.2244L21.3383 10.8603L19.8484 8.25645L18.3585 5.65256L17.7222 6.01664L19.2121 8.62053ZM19.8484 8.25645L21.3383 10.8603C21.2283 10.9232 21.0634 10.989 20.858 11.0134C20.6535 11.0377 20.4847 11.012 20.376 10.981L21.1988 8.09604L22.0216 5.21107C20.7796 4.85686 19.4944 5.0026 18.3585 5.65256L19.8484 8.25645ZM21.1988 8.09604L20.376 10.981L21.0902 11.1847L21.9129 8.2997L22.7357 5.41473L22.0216 5.21107L21.1988 8.09604ZM21.9129 8.2997L21.0902 11.1847L21.8043 11.3883L22.6271 8.50337L23.4498 5.6184L22.7357 5.41473L21.9129 8.2997ZM22.6271 8.50337L21.8043 11.3883C23.0995 11.7577 24.3424 11.5406 25.3779 11.104L24.2122 8.33972L23.0465 5.57546C22.9802 5.60343 22.9924 5.5884 23.0723 5.58015C23.16 5.5711 23.2946 5.57412 23.4498 5.6184L22.6271 8.50337ZM24.2122 8.33972L25.3779 11.104L26.2489 10.7367L25.0832 7.9724L23.9175 5.20814L23.0465 5.57546L24.2122 8.33972ZM25.0832 7.9724L26.2489 10.7367L27.12 10.3693L25.9543 7.60509L24.7886 4.84083L23.9175 5.20814L25.0832 7.9724ZM25.9543 7.60509L27.12 10.3693C27.0344 10.4054 26.7063 10.5221 26.2332 10.4395C25.7254 10.3508 25.3684 10.0886 25.1797 9.88257L27.3917 7.85602L29.6037 5.82948C29.0374 5.21129 28.252 4.70115 27.265 4.52886C26.3128 4.36262 25.4548 4.55988 24.7886 4.84083L25.9543 7.60509ZM27.3917 7.85602L25.1797 9.88257L25.7461 10.5008L27.9581 8.47428L30.1701 6.44773L29.6037 5.82948L27.3917 7.85602ZM27.9581 8.47428L25.7461 10.5008L26.3125 11.1191L28.5245 9.09253L30.7365 7.06598L30.1701 6.44773L27.9581 8.47428ZM28.5245 9.09253L26.3125 11.1191C26.6148 11.4491 26.8746 11.7697 27.096 12.0801L29.5382 10.3378L31.9805 8.59552C31.6055 8.06988 31.1894 7.56032 30.7365 7.06598L28.5245 9.09253ZM29.5382 10.3378L27.096 12.0801L27.5433 12.7071L29.9855 10.9648L32.4278 9.22252L31.9805 8.59552L29.5382 10.3378ZM29.9855 10.9648L27.5433 12.7071L27.9906 13.3341L30.4328 11.5918L32.8751 9.84953L32.4278 9.22252L29.9855 10.9648ZM30.4328 11.5918L27.9906 13.3341C28.3319 13.8125 28.7011 14.2824 29.0894 14.6706L31.2104 12.549L33.3314 10.4273C33.2793 10.3753 33.1302 10.2071 32.8751 9.84953L30.4328 11.5918ZM31.2104 12.549L29.0894 14.6706L29.4197 15.0008L31.5407 12.8792L33.6617 10.7575L33.3314 10.4273L31.2104 12.549ZM31.5407 12.8792L29.4197 15.0008L29.75 15.331L31.871 13.2093L33.992 11.0877L33.6617 10.7575L31.5407 12.8792ZM31.871 13.2093L29.75 15.331C30.0403 15.6212 30.5337 16.0152 31.2501 16.2095C32.0367 16.4227 32.8251 16.3215 33.4869 16.0064C34.5685 15.4914 35.0525 14.5404 35.2062 14.2285L32.515 12.9027L29.8239 11.5769C29.8334 11.5576 29.8923 11.4385 30.0197 11.2801C30.1383 11.1328 30.4197 10.8214 30.9074 10.5892C31.4619 10.3252 32.1423 10.2347 32.8201 10.4185C33.4278 10.5833 33.8118 10.9075 33.992 11.0877L31.871 13.2093ZM32.515 12.9027L35.2062 14.2285L35.5199 13.5916L32.8287 12.2659L30.1376 10.9401L29.8239 11.5769L32.515 12.9027ZM32.8287 12.2659L35.5199 13.5916L35.8336 12.9548L33.1425 11.629L30.4513 10.3032L30.1376 10.9401L32.8287 12.2659ZM33.1425 11.629L35.8336 12.9548C35.9656 12.687 36.2362 12.1127 36.3021 11.4252C36.3362 11.0701 36.352 10.339 35.9307 9.5668C35.4318 8.65236 34.5898 8.16107 33.805 8.00181L33.2084 10.9419L32.6118 13.882C31.9096 13.7395 31.1268 13.2894 30.6637 12.4406C30.2782 11.734 30.3065 11.093 30.3295 10.8525C30.3735 10.3939 30.5286 10.1465 30.4513 10.3032L33.1425 11.629ZM33.2084 10.9419L33.805 8.00181L33.5571 7.95152L32.9605 10.8916L32.3639 13.8317L32.6118 13.882L33.2084 10.9419ZM32.9605 10.8916L33.5571 7.95152L33.3093 7.90123L32.7127 10.8413L32.1161 13.7814L32.3639 13.8317L32.9605 10.8916ZM32.7127 10.8413L33.3093 7.90123C34.0298 8.04744 34.8691 8.52846 35.3257 9.46956C35.6951 10.2308 35.6138 10.9001 35.5785 11.1196C35.5079 11.5586 35.3473 11.7836 35.4416 11.615L32.8239 10.1496L30.2062 8.68414C30.0612 8.94322 29.7623 9.49726 29.6546 10.1669C29.6008 10.5016 29.5262 11.2616 29.9277 12.0889C30.4163 13.096 31.3129 13.6184 32.1161 13.7814L32.7127 10.8413ZM32.8239 10.1496L35.4416 11.615L35.8007 10.9736L33.183 9.50817L30.5653 8.04272L30.2062 8.68414L32.8239 10.1496ZM31.0203 39.8265L28.2596 41.0005L28.4607 41.4733L31.2214 40.2993L33.9821 39.1252L33.781 38.6524L31.0203 39.8265ZM31.2214 40.2993L28.4607 41.4733C28.8172 42.3118 29.3839 42.9731 29.9294 43.479L31.9696 41.2796L34.0098 39.0802C33.9699 39.0431 33.9412 39.0139 33.9218 38.9928C33.9121 38.9824 33.9052 38.9744 33.9005 38.9689C33.8958 38.9634 33.8937 38.9606 33.8938 38.9606C33.8938 38.9607 33.8962 38.9638 33.9005 38.9701C33.9048 38.9764 33.9112 38.9862 33.9191 38.9995C33.9348 39.0258 33.9576 39.0677 33.9821 39.1252L31.2214 40.2993ZM31.9696 41.2796L29.9294 43.479L30.4765 43.9866L32.5167 41.7872L34.557 39.5877L34.0098 39.0802L31.9696 41.2796ZM32.5167 41.7872L30.4765 43.9866L31.0237 44.4941L33.0639 42.2947L35.1041 40.0953L34.557 39.5877L32.5167 41.7872ZM33.0639 42.2947L31.0237 44.4941C31.7164 45.1368 32.5256 45.6046 33.4184 45.891L34.3346 43.0343L35.2508 40.1776C35.1789 40.1546 35.1409 40.1294 35.1041 40.0953L33.0639 42.2947ZM34.3346 43.0343L33.4184 45.891L34.1419 46.123L35.0581 43.2664L35.9743 40.4097L35.2508 40.1776L34.3346 43.0343ZM35.0581 43.2664L34.1419 46.123L34.8655 46.3551L35.7817 43.4984L36.6979 40.6418L35.9743 40.4097L35.0581 43.2664ZM35.7817 43.4984L34.8655 46.3551C36.1194 46.7573 37.4163 46.6388 38.5727 46.0358L37.1856 43.3757L35.7985 40.7157C35.8903 40.6677 36.0402 40.612 36.2332 40.5952C36.4268 40.5782 36.5893 40.6069 36.6979 40.6418L35.7817 43.4984ZM37.1856 43.3757L38.5727 46.0358L39.2531 45.681L37.8659 43.0209L36.4788 40.3609L35.7985 40.7157L37.1856 43.3757ZM37.8659 43.0209L39.2531 45.681L39.9334 45.3262L38.5463 42.6661L37.1592 40.0061L36.4788 40.3609L37.8659 43.0209ZM38.5463 42.6661L39.9334 45.3262C41.1118 44.7117 41.9279 43.7035 42.3259 42.4852L39.4742 41.5536L36.6225 40.6221C36.6463 40.5493 36.7021 40.424 36.8146 40.2891C36.9286 40.1524 37.0558 40.06 37.1592 40.0061L38.5463 42.6661ZM39.4742 41.5536L42.3259 42.4852L42.5734 41.7274L39.7217 40.7959L36.87 39.8643L36.6225 40.6221L39.4742 41.5536ZM39.7217 40.7959L42.5734 41.7274L42.821 40.9697L39.9693 40.0381L37.1176 39.1066L36.87 39.8643L39.7217 40.7959ZM39.9693 40.0381L42.821 40.9697C42.9011 40.7242 43.0166 40.3582 43.076 40.0158C43.0927 39.9194 43.1201 39.7422 43.1263 39.5255C43.1292 39.4263 43.1595 38.8014 42.8313 38.1126C42.6361 37.7028 42.2309 37.1016 41.4667 36.7163C40.6803 36.3199 39.9156 36.3537 39.3992 36.4789C38.5677 36.6806 38.0694 37.1832 38.0019 37.2478L40.0775 39.4138L42.1531 41.5799C42.1089 41.6223 41.6297 42.1119 40.8134 42.3099C40.3046 42.4333 39.5464 42.4676 38.7656 42.0739C38.007 41.6915 37.6063 41.0954 37.4146 40.6931C37.0936 40.0192 37.1269 39.4184 37.1288 39.3527C37.1341 39.1694 37.1565 39.035 37.1642 38.9906C37.1875 38.8563 37.2024 38.8469 37.1176 39.1066L39.9693 40.0381ZM40.0775 39.4138L38.0019 37.2478L37.8626 37.3812L39.9383 39.5473L42.0139 41.7134L42.1531 41.5799L40.0775 39.4138ZM39.9383 39.5473L37.8626 37.3812L37.7234 37.5147L39.799 39.6807L41.8746 41.8468L42.0139 41.7134L39.9383 39.5473ZM39.799 39.6807L37.7234 37.5147C37.294 37.9262 37.0319 38.4281 36.9704 38.5411C36.8408 38.779 36.7076 39.0543 36.5757 39.3418L39.3024 40.593L42.029 41.8442C42.0803 41.7324 42.1241 41.64 42.1609 41.565C42.1982 41.4889 42.2243 41.4389 42.24 41.41C42.2476 41.3961 42.2505 41.3912 42.2491 41.3937C42.248 41.3955 42.239 41.4108 42.2225 41.4358C42.2072 41.4591 42.1757 41.5057 42.1289 41.566C42.1048 41.597 42.0728 41.6365 42.0331 41.6816C41.9939 41.7261 41.941 41.7832 41.8746 41.8468L39.799 39.6807ZM39.3024 40.593L36.5757 39.3418L36.2184 40.1206L38.945 41.3718L41.6716 42.623L42.029 41.8442L39.3024 40.593ZM38.945 41.3718L36.2184 40.1206L35.861 40.8993L38.5876 42.1505L41.3143 43.4017L41.6716 42.623L38.945 41.3718ZM38.5876 42.1505L35.861 40.8993C35.9281 40.753 36.2682 40.1075 37.146 39.8027C38.0266 39.497 38.697 39.7949 38.8456 39.8715L37.4712 42.5381L36.0968 45.2048C36.7514 45.5422 37.8609 45.9058 39.1137 45.4709C40.3636 45.037 41.0089 44.0673 41.3143 43.4017L38.5876 42.1505ZM37.4712 42.5381L38.8456 39.8715L38.0865 39.4802L36.7121 42.1469L35.3377 44.8135L36.0968 45.2048L37.4712 42.5381ZM36.7121 42.1469L38.0865 39.4802L37.3275 39.089L35.9531 41.7557L34.5787 44.4223L35.3377 44.8135L36.7121 42.1469ZM35.9531 41.7557L37.3275 39.089C36.7612 38.7971 36.2134 38.5398 35.6872 38.3232L34.5452 41.0973L33.4031 43.8715C33.7421 44.011 34.1329 44.1926 34.5787 44.4223L35.9531 41.7557ZM34.5452 41.0973L35.6872 38.3232L35.0383 38.0561L33.8963 40.8302L32.7543 43.6043L33.4031 43.8715L34.5452 41.0973ZM33.8963 40.8302L35.0383 38.0561L34.3895 37.789L33.2474 40.5631L32.1054 43.3372L32.7543 43.6043L33.8963 40.8302ZM33.2474 40.5631L34.3895 37.789C34.4048 37.7953 34.4192 37.8025 34.4321 37.8099C34.445 37.8173 34.4541 37.8237 34.4595 37.8278C34.4708 37.8365 34.4592 37.8301 34.4294 37.7935L32.1035 39.6882L29.7776 41.583C30.3854 42.3291 31.1591 42.9477 32.1054 43.3372L33.2474 40.5631ZM32.1035 39.6882L34.4294 37.7935L33.9343 37.1857L31.6084 39.0805L29.2825 40.9753L29.7776 41.583L32.1035 39.6882ZM31.6084 39.0805L33.9343 37.1857L33.4392 36.5779L31.1133 38.4727L28.7874 40.3675L29.2825 40.9753L31.6084 39.0805ZM31.1133 38.4727L33.4392 36.5779C33.289 36.3936 32.9372 35.9618 32.4861 35.6395C32.3522 35.5438 32.0929 35.3717 31.7352 35.2384C31.4086 35.1167 30.6594 34.9005 29.7572 35.1815C28.7169 35.5054 28.1275 36.2748 27.8631 36.8998C27.6356 37.4373 27.6182 37.9088 27.6182 38.1189H30.6182H33.6182C33.6182 38.2868 33.6058 38.7249 33.3887 39.238C33.1346 39.8386 32.5607 40.5927 31.541 40.9102C30.6594 41.1847 29.9361 40.971 29.6404 40.8609C29.3136 40.7391 29.0904 40.5875 28.9978 40.5213C28.7118 40.3169 28.6074 40.1466 28.7874 40.3675L31.1133 38.4727ZM30.6182 38.1189H27.6182V38.3729H30.6182H33.6182V38.1189H30.6182ZM30.6182 38.3729H27.6182V38.6269H30.6182H33.6182V38.3729H30.6182ZM30.6182 38.6269H27.6182C27.6182 39.4331 27.8951 40.1434 28.0585 40.5277L30.8192 39.3537L33.58 38.1796C33.5475 38.1033 33.548 38.0931 33.5598 38.1356C33.5663 38.1592 33.5796 38.2106 33.5917 38.2854C33.6036 38.3584 33.6182 38.4758 33.6182 38.6269H30.6182ZM30.8192 39.3537L28.0585 40.5277L28.2596 41.0005L31.0203 39.8265L33.781 38.6524L33.58 38.1796L30.8192 39.3537ZM26.657 29.1005L25.1366 26.5143L24.4681 26.9074L25.9885 29.4936L27.5089 32.0798L28.1774 31.6867L26.657 29.1005ZM25.9885 29.4936L24.4681 26.9074C24.3115 26.9994 24.0297 27.1714 23.7577 27.412C23.6356 27.52 23.3495 27.7841 23.1065 28.1971C22.878 28.5855 22.3857 29.6522 22.9175 30.9217C23.4155 32.1104 24.4252 32.5184 24.7565 32.6311C25.1587 32.7679 25.5042 32.7927 25.6613 32.8003C26.0033 32.8168 26.3157 32.7816 26.5001 32.7575L26.1097 29.783L25.7194 26.8085C25.6405 26.8188 25.7504 26.7976 25.9506 26.8072C26.0369 26.8114 26.3267 26.8276 26.6884 26.9506C26.9793 27.0495 27.9636 27.4386 28.4515 28.6032C28.9732 29.8485 28.486 30.8859 28.2778 31.2399C28.055 31.6184 27.8045 31.8429 27.733 31.9061C27.5624 32.057 27.4426 32.1187 27.5089 32.0798L25.9885 29.4936ZM26.1097 29.783L26.5001 32.7575L27.2899 32.6538L26.8995 29.6793L26.5092 26.7048L25.7194 26.8085L26.1097 29.783ZM26.8995 29.6793L27.2899 32.6538L28.0796 32.5502L27.6893 29.5757L27.299 26.6012L26.5092 26.7048L26.8995 29.6793ZM27.6893 29.5757L28.0796 32.5502C28.1919 32.5355 28.2847 32.5244 28.3599 32.5165C28.4364 32.5085 28.4857 32.5045 28.5127 32.5028C28.5255 32.502 28.5284 32.502 28.523 32.5022C28.5183 32.5023 28.4982 32.5029 28.4661 32.5022C28.436 32.5016 28.3773 32.4997 28.299 32.4918C28.2587 32.4878 28.2068 32.4816 28.1459 32.4717C28.0858 32.4619 28.0072 32.4471 27.9156 32.4239L28.6503 29.5153L29.3849 26.6066C28.8085 26.461 28.2471 26.5077 28.1362 26.5147C27.8793 26.5308 27.5922 26.5627 27.299 26.6012L27.6893 29.5757ZM28.6503 29.5153L27.9156 32.4239L28.0868 32.4672L28.8215 29.5585L29.5561 26.6499L29.3849 26.6066L28.6503 29.5153ZM28.8215 29.5585L28.0868 32.4672L28.258 32.5104L28.9926 29.6017L29.7273 26.6931L29.5561 26.6499L28.8215 29.5585ZM28.9926 29.6017L28.258 32.5104C28.4547 32.5601 28.8672 32.6463 29.3855 32.5841C29.958 32.5154 30.7873 32.2392 31.4088 31.4476C31.9905 30.7069 32.0639 29.9244 32.0552 29.5073C32.0463 29.0866 31.9522 28.7595 31.8973 28.5928C31.7171 28.0457 31.3958 27.607 31.3165 27.4954L28.8714 29.2337L26.4263 30.9719C26.542 31.1346 26.3383 30.8943 26.1985 30.4699C26.1537 30.3339 26.0649 30.0327 26.0565 29.6332C26.0482 29.2373 26.1173 28.4713 26.6897 27.7423C27.302 26.9624 28.1173 26.6932 28.6708 26.6268C29.1704 26.5669 29.5591 26.6506 29.7273 26.6931L28.9926 29.6017ZM28.8714 29.2337L31.3165 27.4954L31.0241 27.0841L28.579 28.8223L26.1339 30.5606L26.4263 30.9719L28.8714 29.2337ZM28.579 28.8223L31.0241 27.0841L30.7316 26.6727L28.2866 28.411L25.8415 30.1493L26.1339 30.5606L28.579 28.8223ZM28.2866 28.411L30.7316 26.6727C30.6302 26.5301 30.4801 26.3231 30.3204 26.1414C30.317 26.1376 30.0199 25.7753 29.5546 25.4964C29.4096 25.4095 29.1144 25.2475 28.706 25.1493C28.294 25.0502 27.5333 24.9645 26.7069 25.3587C25.835 25.7747 25.389 26.4839 25.1912 27.0042C25.0111 27.4777 24.9941 27.8836 24.9941 28.0784H27.9941H30.9941C30.9941 28.2666 30.9779 28.6672 30.7994 29.1367C30.6031 29.653 30.1594 30.3595 29.2905 30.774C28.4671 31.1668 27.7103 31.0809 27.3029 30.9829C26.899 30.8858 26.6092 30.7262 26.4702 30.6429C26.1901 30.475 26.0079 30.3005 25.9598 30.2545C25.8862 30.1839 25.8354 30.1272 25.8141 30.103C25.7519 30.0322 25.748 30.0177 25.8415 30.1493L28.2866 28.411ZM27.9941 28.0784H24.9941V28.1571H27.9941L30.9941 28.1571V28.0784H27.9941ZM27.9941 28.1571H24.9941V28.2358H27.9941H30.9941V28.1571L27.9941 28.1571ZM27.9941 28.2358H24.9941C24.9941 27.7194 25.1276 27.3157 25.2304 27.0736C25.3362 26.8248 25.4554 26.6396 25.5356 26.5263C25.6908 26.3072 25.839 26.164 25.8965 26.11C25.9678 26.0429 26.024 25.9978 26.0491 25.9781C26.0772 25.9561 26.0949 25.9436 26.0974 25.9418C26.1009 25.9394 26.0801 25.954 26.0242 25.9891C25.971 26.0224 25.899 26.0662 25.8052 26.1213L27.3256 28.7075L28.846 31.2937C29.0892 31.1507 29.3418 30.9958 29.5566 30.8443C29.6532 30.7761 29.8283 30.6488 30.0082 30.4795C30.0935 30.3993 30.2626 30.2332 30.4318 29.9944C30.5375 29.8451 30.9941 29.1983 30.9941 28.2358H27.9941ZM27.3256 28.7075L25.8052 26.1213L25.1366 26.5143L26.657 29.1005L28.1774 31.6867L28.846 31.2937L27.3256 28.7075ZM42.7148 29.2147L40.2868 27.4527L39.9601 27.9029L42.3882 29.6649L44.8162 31.4269L45.1429 30.9767L42.7148 29.2147ZM42.3882 29.6649L39.9601 27.9029C39.851 28.0532 39.6708 28.3166 39.5236 28.6538C39.448 28.8272 38.9963 29.8313 39.4482 31.029C40.0675 32.6706 41.5908 32.9751 42.1567 33.0085C42.7162 33.0416 43.1689 32.9173 43.3462 32.8658L42.5089 29.985L41.6717 27.1042C41.6998 27.096 42.0357 26.9909 42.5106 27.019C42.9918 27.0474 44.4627 27.3227 45.0619 28.911C45.4936 30.0553 45.0541 30.9819 45.0228 31.0536C44.9201 31.289 44.8164 31.4266 44.8162 31.4269L42.3882 29.6649ZM42.5089 29.985L43.3462 32.8658L43.7937 32.7357L42.9564 29.8549L42.1191 26.9741L41.6717 27.1042L42.5089 29.985ZM42.9564 29.8549L43.7937 32.7357L44.2411 32.6057L43.4038 29.7249L42.5665 26.8441L42.1191 26.9741L42.9564 29.8549ZM43.4038 29.7249L44.2411 32.6057C44.6149 32.497 44.9788 32.3749 45.3244 32.2356L44.2034 29.453L43.0824 26.6703C42.9585 26.7202 42.7893 26.7793 42.5665 26.8441L43.4038 29.7249ZM44.2034 29.453L45.3244 32.2356L45.6766 32.0938L44.5556 29.3111L43.4346 26.5284L43.0824 26.6703L44.2034 29.453ZM44.5556 29.3111L45.6766 32.0938L46.0288 31.9519L44.9078 29.1692L43.7868 26.3865L43.4346 26.5284L44.5556 29.3111ZM44.9078 29.1692L46.0288 31.9519C46.0938 31.9257 46.2726 31.8538 46.4582 31.7535C46.513 31.7239 46.6059 31.6719 46.7146 31.5992C46.791 31.5481 47.0333 31.3844 47.2814 31.11C47.3538 31.0299 48.406 29.9226 47.9467 28.2837C47.4729 26.5931 45.9361 26.2202 45.8105 26.1874C45.4388 26.0905 45.1349 26.0894 45.0424 26.0894C44.9087 26.0894 44.8002 26.0982 44.7375 26.1043C44.6109 26.1165 44.5052 26.1342 44.4479 26.1444C44.3248 26.1663 44.2024 26.1935 44.1052 26.2162L44.787 29.1377L45.4687 32.0592C45.5292 32.0451 45.5301 32.0461 45.4959 32.0522C45.483 32.0545 45.4132 32.0669 45.3138 32.0765C45.2648 32.0813 45.1678 32.0894 45.0434 32.0894C44.9602 32.0894 44.6635 32.089 44.2968 31.9934C44.1762 31.9619 42.6424 31.591 42.1693 29.903C41.7107 28.2668 42.7615 27.1627 42.8304 27.0865C43.0749 26.8161 43.3115 26.6569 43.3801 26.6111C43.4809 26.5437 43.5638 26.4976 43.6064 26.4746C43.7434 26.4006 43.8392 26.3654 43.7868 26.3865L44.9078 29.1692ZM44.787 29.1377L44.1052 26.2162L43.6322 26.3266L44.314 29.2481L44.9958 32.1696L45.4687 32.0592L44.787 29.1377ZM44.314 29.2481L43.6322 26.3266L43.1592 26.437L43.841 29.3585L44.5228 32.28L44.9958 32.1696L44.314 29.2481ZM43.841 29.3585L43.1592 26.437C43.209 26.4254 43.3463 26.396 43.5442 26.3901C43.7296 26.3845 44.101 26.3948 44.5441 26.5618C45.033 26.746 45.5656 27.1089 45.9405 27.7079C46.2959 28.2756 46.3681 28.8293 46.368 29.1807L43.368 29.1803L40.368 29.1798C40.368 29.6274 40.4599 30.2607 40.8547 30.8914C41.269 31.5533 41.8607 31.9625 42.4284 32.1764C43.3774 32.534 44.2361 32.3469 44.5228 32.28L43.841 29.3585ZM43.368 29.1803L46.368 29.1807L46.3681 28.8921L43.3681 28.8917L40.3681 28.8912L40.368 29.1798L43.368 29.1803ZM43.3681 28.8917L46.3681 28.8921L46.3681 28.6035L43.3681 28.6031L40.3681 28.6026L40.3681 28.8912L43.3681 28.8917ZM43.3681 28.6031L46.3681 28.6035C46.3681 28.4555 46.3592 28.2156 46.3002 27.9319C46.247 27.6757 46.1093 27.1639 45.7068 26.6516C45.2342 26.0501 44.4983 25.5882 43.6044 25.5038C42.834 25.431 42.2446 25.6675 41.9565 25.8101C41.4147 26.078 41.074 26.449 40.9798 26.5511C40.8288 26.7146 40.7044 26.8773 40.6135 27.0026L43.0415 28.7646L45.4695 30.5266C45.4875 30.5019 45.4583 30.5452 45.389 30.6203C45.3765 30.6339 45.1039 30.9472 44.6165 31.1882C44.3555 31.3173 43.79 31.548 43.04 31.4772C42.1666 31.3947 41.4476 30.9425 40.9886 30.3582C40.5998 29.8632 40.4723 29.3765 40.4258 29.153C40.3736 28.902 40.3681 28.7026 40.3681 28.6026L43.3681 28.6031ZM43.0415 28.7646L40.6135 27.0026L40.2868 27.4527L42.7148 29.2147L45.1429 30.9767L45.4695 30.5266L43.0415 28.7646Z" fill="#D48195"/>
</svg>
