<svg width="130" height="91" viewBox="0 0 130 91" fill="none" xmlns="http://www.w3.org/2000/svg">
<path d="M43.3145 0C32.248 11.392 26.9398 23.311 27.2099 33.26C27.7841 33.2258 28.3632 33.207 28.9461 33.207C44.8168 33.2072 57.6829 46.073 57.6829 61.9439C57.6829 77.8147 44.8168 90.6805 28.9461 90.6807C14.3515 90.6807 2.29859 79.8008 0.4543 65.7093L0.20859 65.7754C-2.66534 27.4597 24.7951 9.89824 43.3145 0Z" fill="white" fill-opacity="0.15"/>
<path d="M115.046 0.319298C103.98 11.7113 98.6716 23.6303 98.9416 33.5793C99.5159 33.5451 100.095 33.5263 100.678 33.5263C116.549 33.5265 129.415 46.3923 129.415 62.2632C129.415 78.134 116.549 90.9998 100.678 91C86.0832 91 74.0303 80.1201 72.186 66.0286L71.9403 66.0947C69.0664 27.779 96.5268 10.2175 115.046 0.319298Z" fill="white" fill-opacity="0.15"/>
</svg>
